<svg width="50" height="33" viewBox="0 0 50 33" fill="none" xmlns="http://www.w3.org/2000/svg">
<path d="M48.3951 0.000229851H24.147C23.5963 0.000229851 23.1501 0.499151 23.1501 1.11425C23.1501 1.72934 23.5963 2.22826 24.147 2.22826H45.4018L24.696 19.563L3.99009 2.22803H13.7973C14.3478 2.22803 14.7943 1.72911 14.7943 1.11402C14.7943 0.498922 14.348 0 13.7973 0H0.996959C0.446497 0 0 0.498922 0 1.11402V31.1178C0 31.7332 0.446497 32.2321 0.996959 32.2321H23.8776C24.4281 32.2321 24.8746 31.7334 24.8746 31.1178C24.8746 30.5027 24.4281 30.0038 23.8776 30.0038H3.13712L15.0012 14.2307L24.0982 21.8465C24.2755 21.9946 24.4859 22.069 24.696 22.069C24.9062 22.069 25.1166 21.9948 25.2937 21.8465L34.3907 14.2307L46.2552 30.0038H34.2269C33.6764 30.0038 33.23 30.5027 33.23 31.1178C33.23 31.7332 33.6764 32.2321 34.2269 32.2321H48.3951C48.9456 32.2321 49.3921 31.7334 49.3921 31.1178V1.11425C49.3921 0.498923 48.9458 0.000229851 48.3951 0.000229851ZM1.99392 28.0615V3.34068L13.4031 12.8928L1.99392 28.0615ZM47.3982 3.34068V28.0611L35.989 12.8928L47.3982 3.34068Z" fill="#3BDBAB"/>
</svg>
