<svg width="50" height="50" viewBox="0 0 50 50" fill="none" xmlns="http://www.w3.org/2000/svg">
<path d="M32.6143 49.9996H32.614C31.2639 49.9996 28.4376 49.7718 24.6738 48.2475C20.0692 46.3825 15.5222 43.1931 11.159 38.7677C2.46845 29.9531 -0.725545 23.3988 0.135427 16.1462C0.241445 15.1964 0.47078 14.2597 0.836047 13.2829C0.837268 13.2796 0.838895 13.2761 0.840116 13.2728C1.23184 12.2587 3.46922 9.42593 4.14542 8.58176C4.16659 8.55514 4.18979 8.52934 4.21359 8.50499C5.03895 7.66763 6.12845 7.20654 7.28224 7.20654C8.38923 7.20654 9.42317 7.63667 10.1932 8.41747L16.4163 14.7307C18.0408 16.3805 18.0034 19.101 16.3327 20.7957L15.2988 21.8459L13.7252 23.4397C14.7941 25.3913 16.2591 28.0516 18.9962 30.828C21.7376 33.6101 24.3592 35.091 26.2816 36.1715L28.8867 33.5298C29.711 32.6937 30.7999 32.2328 31.9537 32.2328C33.0597 32.2328 34.0936 32.6619 34.8647 33.4408L41.089 39.7549C42.7119 41.4061 42.6742 44.1268 41.0068 45.8218C40.9824 45.8467 40.9566 45.8703 40.9299 45.8923C40.097 46.5778 37.3027 48.845 36.3107 49.2382C35.3754 49.6064 34.4483 49.8426 33.4742 49.9608C33.4697 49.9612 33.465 49.9619 33.4608 49.9623C33.3568 49.9738 33.0676 49.9996 32.6143 49.9996ZM2.69087 14.0042C2.38604 14.8207 2.19537 15.5964 2.10888 16.3761C2.10848 16.3786 2.10827 16.3811 2.10787 16.3836C1.32727 22.9466 4.35644 29.0192 12.5637 37.3434C22.2993 47.2174 30.3718 47.985 32.614 47.985C32.9761 47.985 33.192 47.9654 33.2455 47.96C34.0491 47.8616 34.816 47.6659 35.5895 47.3615C36.0655 47.1728 38.0495 45.6665 39.6339 44.3644C40.4973 43.4523 40.5229 42.0333 39.6831 41.1791L33.4612 34.8674C33.0666 34.4687 32.5304 34.248 31.9537 34.248C31.3308 34.248 30.7405 34.4992 30.2912 34.9547L27.156 38.1341C26.8434 38.4511 26.3622 38.5205 25.9749 38.3042C25.7743 38.1923 25.5671 38.0753 25.349 37.951C23.3253 36.8136 20.5468 35.2524 17.5917 32.2528C14.6382 29.2578 13.0942 26.4374 11.9664 24.3779L11.9068 24.2685C11.812 24.0948 11.7204 23.9263 11.6298 23.7654C11.407 23.3705 11.4725 22.8737 11.79 22.5524L13.8943 20.4213L14.9274 19.3716C15.8246 18.4616 15.8618 17.0191 15.0112 16.1551L8.78869 9.84223C8.39412 9.44223 7.85894 9.22139 7.28245 9.22139C6.67482 9.22139 6.09792 9.4606 5.65248 9.8961C4.37008 11.499 2.88602 13.5083 2.69087 14.0042Z" fill="url(#paint0_linear_102_7)"/>
<path d="M38.7396 11.812C38.4855 11.812 38.2311 11.7135 38.0374 11.5168C37.6493 11.1234 37.6493 10.4857 38.0374 10.0921L40.299 7.79797C40.687 7.40458 41.3158 7.40458 41.7035 7.79797C42.0915 8.19137 42.0915 8.82934 41.7035 9.22273L39.4419 11.5168C39.2479 11.7135 38.9938 11.812 38.7396 11.812Z" fill="url(#paint1_linear_102_7)"/>
<path d="M27.7939 22.914C27.5396 22.914 27.2854 22.8155 27.0915 22.6188C26.704 22.2254 26.704 21.5875 27.0915 21.1941L35.2356 12.9339C35.6233 12.5403 36.2523 12.5403 36.6401 12.9339C37.0278 13.3273 37.0278 13.9652 36.6401 14.3584L28.4962 22.6186C28.3025 22.8157 28.0481 22.914 27.7939 22.914Z" fill="url(#paint2_linear_102_7)"/>
<path d="M23.1415 5.23381C22.5929 5.23381 22.1484 4.78284 22.1484 4.22639V1.00742C22.1484 0.450977 22.5929 0 23.1415 0C23.6901 0 24.1347 0.450977 24.1347 1.00742V4.22639C24.1347 4.78284 23.6903 5.23381 23.1415 5.23381Z" fill="url(#paint3_linear_102_7)"/>
<path d="M23.1411 20.9589C22.5925 20.9589 22.1477 20.5077 22.1477 19.9515V8.2457C22.1477 7.68946 22.5925 7.23828 23.1411 7.23828C23.6898 7.23828 24.1344 7.68946 24.1344 8.2457V19.9515C24.1344 20.5079 23.6898 20.9589 23.1411 20.9589Z" fill="url(#paint4_linear_102_7)"/>
<path d="M48.3989 27.633H45.2248C44.6764 27.633 44.2316 27.1818 44.2316 26.6256C44.2316 26.0694 44.6764 25.6182 45.2248 25.6182H48.3989C48.9473 25.6182 49.3921 26.0694 49.3921 26.6256C49.3921 27.1818 48.9475 27.633 48.3989 27.633Z" fill="url(#paint5_linear_102_7)"/>
<path d="M41.2617 27.633H29.7213C29.1729 27.633 28.728 27.1818 28.728 26.6256C28.728 26.0694 29.1729 25.6182 29.7213 25.6182H41.2617C41.8101 25.6182 42.2549 26.0694 42.2549 26.6256C42.2549 27.1818 41.8101 27.633 41.2617 27.633Z" fill="url(#paint6_linear_102_7)"/>
<defs>
<linearGradient id="paint0_linear_102_7" x1="-352.907" y1="234.613" x2="58.3293" y2="14.1213" gradientUnits="userSpaceOnUse">
<stop stop-color="#3BDBAB"/>
<stop offset="1" stop-color="#3BDBAB"/>
</linearGradient>
<linearGradient id="paint1_linear_102_7" x1="-356.339" y1="228.202" x2="54.8918" y2="7.71388" gradientUnits="userSpaceOnUse">
<stop stop-color="#C3DB3D"/>
<stop offset="1" stop-color="#C3DB3D"/>
</linearGradient>
<linearGradient id="paint2_linear_102_7" x1="-354.809" y1="231.062" x2="56.4247" y2="10.5718" gradientUnits="userSpaceOnUse">
<stop stop-color="#C3DB3D"/>
<stop offset="1" stop-color="#C3DB3D"/>
</linearGradient>
<linearGradient id="paint3_linear_102_7" x1="-363.073" y1="215.648" x2="48.1601" y2="-4.84133" gradientUnits="userSpaceOnUse">
<stop stop-color="#C3DB3D"/>
<stop offset="1" stop-color="#C3DB3D"/>
</linearGradient>
<linearGradient id="paint4_linear_102_7" x1="-358.323" y1="224.51" x2="52.912" y2="4.01924" gradientUnits="userSpaceOnUse">
<stop stop-color="#C3DB3D"/>
<stop offset="1" stop-color="#C3DB3D"/>
</linearGradient>
<linearGradient id="paint5_linear_102_7" x1="-347.737" y1="244.255" x2="63.4981" y2="23.7642" gradientUnits="userSpaceOnUse">
<stop stop-color="#C3DB3D"/>
<stop offset="1" stop-color="#C3DB3D"/>
</linearGradient>
<linearGradient id="paint6_linear_102_7" x1="-350.321" y1="239.436" x2="60.9137" y2="18.9451" gradientUnits="userSpaceOnUse">
<stop stop-color="#C3DB3D"/>
<stop offset="1" stop-color="#C3DB3D"/>
</linearGradient>
</defs>
</svg>
