<svg width="39" height="39" viewBox="0 0 39 39" fill="none" xmlns="http://www.w3.org/2000/svg">
<path d="M19.5 0C15.6433 0 11.8731 1.14366 8.66639 3.28634C5.45963 5.42903 2.96027 8.47451 1.48436 12.0377C0.00844905 15.6008 -0.377716 19.5216 0.374696 23.3043C1.12711 27.0869 2.9843 30.5615 5.71143 33.2886C8.43855 36.0157 11.9131 37.8729 15.6957 38.6253C19.4784 39.3777 23.3992 38.9916 26.9623 37.5156C30.5255 36.0397 33.571 33.5404 35.7137 30.3336C37.8564 27.1269 39 23.3567 39 19.5C38.9945 14.33 36.9383 9.37322 33.2826 5.71745C29.6268 2.06167 24.6701 0.00545966 19.5 0ZM19.5 36C16.2366 36 13.0465 35.0323 10.3331 33.2192C7.61969 31.4062 5.50484 28.8293 4.256 25.8143C3.00715 22.7993 2.6804 19.4817 3.31705 16.281C3.95371 13.0803 5.52518 10.1403 7.83275 7.83274C10.1403 5.52517 13.0803 3.9537 16.281 3.31704C19.4817 2.68039 22.7993 3.00714 25.8143 4.25599C28.8293 5.50483 31.4062 7.61968 33.2193 10.3331C35.0323 13.0465 36 16.2366 36 19.5C35.995 23.8745 34.2551 28.0685 31.1618 31.1618C28.0685 34.2551 23.8746 35.995 19.5 36ZM31.5 19.5C31.5 19.8978 31.342 20.2794 31.0607 20.5607C30.7794 20.842 30.3978 21 30 21H19.5C19.1022 21 18.7207 20.842 18.4393 20.5607C18.158 20.2794 18 19.8978 18 19.5V9C18 8.60218 18.158 8.22064 18.4393 7.93934C18.7207 7.65804 19.1022 7.5 19.5 7.5C19.8978 7.5 20.2794 7.65804 20.5607 7.93934C20.842 8.22064 21 8.60218 21 9V18H30C30.3978 18 30.7794 18.158 31.0607 18.4393C31.342 18.7206 31.5 19.1022 31.5 19.5Z" fill="#484848"/>
</svg>
