<svg width="72" height="72" viewBox="0 0 72 72" fill="none" xmlns="http://www.w3.org/2000/svg">
<path d="M60.6909 33.2353C60.6057 32.8747 60.4328 32.5407 60.1875 32.263C59.9421 31.9853 59.632 31.7725 59.2847 31.6435L43.0818 25.5656L47.205 4.94158C47.2983 4.46239 47.2333 3.96584 47.0197 3.52684C46.8061 3.08785 46.4555 2.73025 46.0208 2.50799C45.5862 2.28573 45.091 2.21088 44.61 2.29473C44.1291 2.37858 43.6885 2.61659 43.3547 2.97283L11.8547 36.7228C11.5988 36.9924 11.4137 37.3212 11.316 37.6797C11.2182 38.0383 11.2107 38.4155 11.2943 38.7776C11.3779 39.1398 11.5499 39.4756 11.7949 39.755C12.0399 40.0345 12.3503 40.2489 12.6984 40.3791L28.9068 46.4569L24.795 67.0585C24.7016 67.5377 24.7666 68.0342 24.9802 68.4732C25.1938 68.9122 25.5444 69.2698 25.9791 69.4921C26.4138 69.7143 26.909 69.7892 27.3899 69.7053C27.8708 69.6215 28.3115 69.3835 28.6453 69.0272L60.1453 35.2772C60.3965 35.0076 60.5776 34.6804 60.6728 34.3243C60.7679 33.9683 60.7741 33.5943 60.6909 33.2353ZM30.7603 60.1875L33.705 45.4556C33.8104 44.9332 33.7269 44.3902 33.4693 43.9236C33.2118 43.4569 32.7969 43.0969 32.2987 42.9075L17.4375 37.3247L41.2368 11.8266L38.295 26.5585C38.1896 27.0809 38.2731 27.6239 38.5306 28.0905C38.7882 28.5572 39.203 28.9172 39.7012 29.1066L54.5512 34.6753L30.7603 60.1875Z" fill="#C3DB3D"/>
</svg>
