<svg width="136" height="146" viewBox="0 0 136 146" fill="none" xmlns="http://www.w3.org/2000/svg">
<path d="M116.311 20.0689C106.813 10.5171 94.6911 3.99839 81.4815 1.33915C68.2718 -1.32009 54.5695 -0.000108007 42.1115 5.13176C29.6535 10.2636 19.0007 18.9763 11.5037 30.1653C4.00664 41.3543 0.002903 54.5157 0 67.9812V103.216C0 107.888 1.85739 112.369 5.16358 115.673C8.46976 118.977 12.9539 120.833 17.6296 120.833H27.7036C32.3793 120.833 36.8634 118.977 40.1696 115.673C43.4758 112.369 45.3332 107.888 45.3332 103.216V78.0482C45.3332 73.3758 43.4758 68.8948 40.1696 65.591C36.8634 62.2871 32.3793 60.431 27.7036 60.431H15.6399C17.4633 47.8529 23.7589 36.3516 33.3742 28.0326C42.9895 19.7135 55.2813 15.1331 67.9997 15.1298H68.4027C81.0645 15.184 93.2835 19.7919 102.824 28.1105C112.365 36.4291 118.59 47.9023 120.36 60.431H108.296C103.62 60.431 99.1361 62.2871 95.8299 65.591C92.5237 68.8948 90.6663 73.3758 90.6663 78.0482V103.216C90.6663 107.888 92.5237 112.369 95.8299 115.673C99.1361 118.977 103.62 120.833 108.296 120.833H120.637C120.056 123.675 118.511 126.23 116.262 128.064C114.013 129.898 111.199 130.9 108.296 130.9H73.0368C71.0329 130.9 69.1111 131.695 67.6942 133.111C66.2773 134.527 65.4812 136.447 65.4812 138.45C65.4812 140.452 66.2773 142.373 67.6942 143.789C69.1111 145.205 71.0329 146 73.0368 146H108.296C115.641 145.992 122.682 143.072 127.876 137.882C133.07 132.692 135.991 125.656 135.999 118.316V67.9812C136.034 59.0933 134.313 50.2859 130.934 42.064C127.556 33.8422 122.586 26.3676 116.311 20.0689ZM27.7036 75.5314C28.3716 75.5314 29.0121 75.7966 29.4845 76.2686C29.9568 76.7406 30.2221 77.3807 30.2221 78.0482V103.216C30.2221 103.883 29.9568 104.523 29.4845 104.995C29.0121 105.467 28.3716 105.732 27.7036 105.732H17.6296C16.9616 105.732 16.321 105.467 15.8487 104.995C15.3764 104.523 15.1111 103.883 15.1111 103.216V75.5314H27.7036ZM105.777 103.216V78.0482C105.777 77.3807 106.043 76.7406 106.515 76.2686C106.987 75.7966 107.628 75.5314 108.296 75.5314H120.888V105.732H108.296C107.628 105.732 106.987 105.467 106.515 104.995C106.043 104.523 105.777 103.883 105.777 103.216Z" fill="#464646"/>
</svg>
