<svg width="327" height="308" viewBox="0 0 327 308" fill="none" xmlns="http://www.w3.org/2000/svg">
<path d="M185.914 274.646H157.16V274.867H185.914V274.646Z" fill="#E0E0E0"/>
<path d="M229.479 0.432373H13.0852V114.844H229.479V0.432373Z" fill="#E0E0E0"/>
<path d="M232.3 0.432373H15.906V114.844H232.3V0.432373Z" fill="#EFEFEF"/>
<path d="M227.24 5.79272H20.9749V109.466H227.24V5.79272Z" fill="#F4F4F4"/>
<path d="M36.2485 109.475L92.191 5.80151H118.402L62.4684 109.475H36.2485Z" fill="white"/>
<path d="M71.2673 109.475L127.21 5.80151H153.421L97.4872 109.475H71.2673Z" fill="white"/>
<path d="M144.134 109.475L200.068 5.80151H210.863L154.928 109.475H144.134Z" fill="white"/>
<path d="M160.09 5.79272H152.461V109.466H160.09V5.79272Z" fill="#E0E0E0"/>
<path d="M90.1197 5.79272H82.4912V109.466H90.1197V5.79272Z" fill="#E0E0E0"/>
<path d="M162.767 1.81006H155.139V112.884H162.767V1.81006Z" fill="#F4F4F4"/>
<path d="M92.7975 1.81006H85.1689V112.884H92.7975V1.81006Z" fill="#F4F4F4"/>
<path d="M227.239 5.79272H225.109V109.466H227.239V5.79272Z" fill="#E0E0E0"/>
<path d="M282.929 148.622C282.929 148.622 267.487 120.708 288.908 98.4895C288.908 98.4895 294.499 102.304 294.414 107.444C294.33 112.583 288.428 113.882 289.691 118.173C290.954 122.465 296.536 126.669 292.882 130.21C289.228 133.751 293.463 136.912 293.219 141.248C292.974 145.584 282.929 148.622 282.929 148.622Z" fill="#E0E0E0"/>
<path d="M285.354 153.187C285.354 153.187 291.61 121.591 264.599 107.585C264.599 107.585 260.448 113.06 262.073 117.908C263.698 122.757 269.693 122.041 269.777 126.527C269.862 131.013 265.837 136.85 270.375 139.005C274.914 141.16 271.832 145.558 273.373 149.602C274.914 153.647 285.354 153.187 285.354 153.187Z" fill="#EBEBEB"/>
<path d="M271.604 145.16C271.604 145.16 271.874 158.336 282.264 158.336C292.654 158.336 292.932 145.16 292.932 145.16H271.604Z" fill="#F4F4F4"/>
<path d="M199.504 148.074C199.504 148.074 199.858 158.336 213.523 158.336C227.189 158.336 227.551 148.074 227.551 148.074H199.504Z" fill="#EBEBEB"/>
<path d="M231.222 150.618C231.222 150.618 231.492 158.336 241.764 158.336C252.036 158.336 252.297 150.618 252.297 150.618H231.222Z" fill="#EBEBEB"/>
<path d="M209.128 164.738H186.125V261.497H209.128V164.738Z" fill="#EBEBEB"/>
<path d="M303.971 261.488H190.537V268.12H303.971V261.488Z" fill="#EBEBEB"/>
<path d="M308.392 164.729H209.128V261.488H308.392V164.729Z" fill="#F4F4F4"/>
<path d="M299.348 174.09H218.171V208.406H299.348V174.09Z" fill="#EBEBEB"/>
<path d="M299.348 214.658H218.171V248.975H299.348V214.658Z" fill="#EBEBEB"/>
<path d="M267.908 177.852H249.645C249.05 177.852 248.48 177.605 248.058 177.164C247.637 176.724 247.399 176.127 247.397 175.503C247.401 174.879 247.64 174.282 248.06 173.841C248.481 173.4 249.05 173.15 249.645 173.145H267.908C268.503 173.15 269.072 173.4 269.493 173.841C269.914 174.282 270.152 174.879 270.156 175.503C270.154 176.127 269.916 176.724 269.495 177.164C269.073 177.605 268.503 177.852 267.908 177.852Z" fill="#F4F4F4"/>
<path d="M267.908 218.42H249.645C249.05 218.42 248.48 218.173 248.058 217.733C247.637 217.293 247.399 216.695 247.397 216.071C247.401 215.448 247.64 214.851 248.06 214.409C248.481 213.968 249.05 213.718 249.645 213.714H267.908C268.503 213.718 269.072 213.968 269.493 214.409C269.914 214.851 270.152 215.448 270.156 216.071C270.154 216.695 269.916 217.293 269.495 217.733C269.073 218.173 268.503 218.42 267.908 218.42Z" fill="#F4F4F4"/>
<path d="M311.448 158.336H209.12V164.738H311.448V158.336Z" fill="#EBEBEB"/>
<path d="M209.12 158.327H182.9V164.729H209.12V158.327Z" fill="#E0E0E0"/>
<path d="M306.32 16.5398H256.49V76.7481H306.32V16.5398Z" fill="#EBEBEB"/>
<path d="M311.978 16.5398H257.981V76.7481H311.978V16.5398Z" fill="#F4F4F4"/>
<path d="M307.457 21.282H262.502V71.9972H307.457V21.282Z" fill="white"/>
<path d="M292.596 33.5742H277.364C275.174 33.5742 273.398 35.4364 273.398 37.7335V55.5452C273.398 57.8424 275.174 59.7045 277.364 59.7045H292.596C294.786 59.7045 296.561 57.8424 296.561 55.5452V37.7335C296.561 35.4364 294.786 33.5742 292.596 33.5742Z" fill="#F4F4F4"/>
<path d="M179.574 212.062H173.789V268.12H179.574V212.062Z" fill="#E0E0E0"/>
<path opacity="0.5" d="M179.574 212.062H176.677V268.12H179.574V212.062Z" fill="#F4F4F4"/>
<path d="M154.238 227.763H150.264C150.699 227.377 151.049 226.895 151.289 226.352C151.529 225.809 151.653 225.218 151.653 224.62H104.56C104.561 225.219 104.686 225.81 104.928 226.354C105.169 226.897 105.521 227.378 105.958 227.763H102.034C100.627 227.763 99.278 228.35 98.2832 229.393C97.2884 230.436 96.7295 231.851 96.7295 233.327V249.549C96.7295 251.024 97.2884 252.44 98.2832 253.483C99.278 254.526 100.627 255.112 102.034 255.112H154.238C155.645 255.112 156.994 254.526 157.989 253.483C158.984 252.44 159.543 251.024 159.543 249.549V233.327C159.543 231.851 158.984 230.436 157.989 229.393C156.994 228.35 155.645 227.763 154.238 227.763Z" fill="#F4F4F4"/>
<path d="M110.682 239.747H79.0139C77.0422 239.747 75.4438 241.423 75.4438 243.491V251.368C75.4438 253.436 77.0422 255.112 79.0139 255.112H110.682C112.653 255.112 114.252 253.436 114.252 251.368V243.491C114.252 241.423 112.653 239.747 110.682 239.747Z" fill="#EBEBEB"/>
<path d="M113.056 236.356H76.6395C75.9792 236.356 75.4438 236.917 75.4438 237.61V239.04C75.4438 239.733 75.9792 240.294 76.6395 240.294H113.056C113.716 240.294 114.252 239.733 114.252 239.04V237.61C114.252 236.917 113.716 236.356 113.056 236.356Z" fill="#E0E0E0"/>
<path d="M117.83 187.027C117.83 187.027 118.377 205.572 139.091 205.572C159.804 205.572 160.351 187.027 160.351 187.027H117.83Z" fill="#EBEBEB"/>
<path d="M43.7593 205.581H17.9268V212.062H43.7593V205.581Z" fill="#E0E0E0"/>
<path d="M199.622 205.581H43.7676V212.062H199.622V205.581Z" fill="#F4F4F4"/>
<path d="M43.7593 255.113H17.9268V261.594H43.7593V255.113Z" fill="#E0E0E0"/>
<path d="M23.7196 212.062H17.9351V268.12H23.7196V212.062Z" fill="#E0E0E0"/>
<path opacity="0.5" d="M23.7197 212.062H20.8232V268.12H23.7197V212.062Z" fill="#F4F4F4"/>
<path d="M46.6556 212.062H40.8711V268.12H46.6556V212.062Z" fill="#F4F4F4"/>
<path d="M43.7676 212.062H40.8711V268.12H43.7676V212.062Z" fill="#E0E0E0"/>
<path d="M199.613 212.062H193.829V268.12H199.613V212.062Z" fill="#F4F4F4"/>
<path d="M196.725 212.062H193.829V268.12H196.725V212.062Z" fill="#E0E0E0"/>
<path d="M199.622 255.113H43.7676V261.594H199.622V255.113Z" fill="#F4F4F4"/>
<path d="M85.3287 201.757H53.9053V205.581H85.3287V201.757Z" fill="#E0E0E0"/>
<path d="M96.5864 201.748H85.3289V205.572H96.5864V201.748Z" fill="#EBEBEB"/>
<path d="M163.5 308C253.663 308 326.755 303.524 326.755 298.004C326.755 292.483 253.663 288.007 163.5 288.007C73.3365 288.007 0.244629 292.483 0.244629 298.004C0.244629 303.524 73.3365 308 163.5 308Z" fill="#F5F5F5"/>
<path d="M136.447 63.5107C136.506 73.9752 129.357 73.8693 129.5 70.5754C129.643 67.2815 127.875 59.5457 129.5 60.2963C131.125 61.047 136.421 58.8834 136.447 63.5107Z" fill="#1A2E35"/>
<path d="M131.95 82.4615C132.935 82.3821 134.914 83.3446 135.091 86.0733C135.137 86.8662 135.358 87.637 135.736 88.325C136.115 89.0131 136.64 89.5996 137.272 90.0384C137.272 90.0384 133.996 90.4534 131.849 88.6696C130.098 87.2302 129.323 84.0776 130.241 83.3711C130.745 82.948 131.327 82.6383 131.95 82.4615Z" fill="#1A2E35"/>
<path d="M130.662 75.0261C132.346 76.5892 133.887 80.722 130.089 82.6824C126.292 84.6429 120.322 80.0332 120.322 80.0332L126.881 76.8453L130.662 75.0261Z" fill="#1A2E35"/>
<path d="M132.531 82.8414C132.439 82.2691 132.286 81.7093 132.076 81.1724C132.061 81.1276 132.036 81.0866 132.005 81.0517C131.974 81.0168 131.937 80.9887 131.895 80.969C131.854 80.9493 131.809 80.9384 131.764 80.9369C131.718 80.9355 131.673 80.9435 131.63 80.9604H131.563L129.23 82.5941C129.193 82.6208 129.161 82.6549 129.136 82.6947C129.111 82.7344 129.093 82.7789 129.085 82.8257C129.076 82.8724 129.076 82.9205 129.085 82.9671C129.095 83.0138 129.112 83.0581 129.138 83.0975C129.164 83.1342 129.196 83.1668 129.23 83.1946C129.567 83.4512 129.928 83.6702 130.308 83.8481C130.856 84.0777 131.992 83.4242 132.38 83.1416C132.428 83.1103 132.468 83.0659 132.494 83.0131C132.521 82.9603 132.534 82.9011 132.531 82.8414Z" fill="#3BDBAB"/>
<path opacity="0.3" d="M132.531 82.8414C132.439 82.2691 132.286 81.7093 132.076 81.1724C132.061 81.1276 132.036 81.0866 132.005 81.0517C131.974 81.0168 131.937 80.9887 131.895 80.969C131.854 80.9493 131.809 80.9384 131.764 80.9369C131.718 80.9355 131.673 80.9435 131.63 80.9604H131.563L129.23 82.5941C129.193 82.6208 129.161 82.6549 129.136 82.6947C129.111 82.7344 129.093 82.7789 129.085 82.8257C129.076 82.8724 129.076 82.9205 129.085 82.9671C129.095 83.0138 129.112 83.0581 129.138 83.0975C129.164 83.1342 129.196 83.1668 129.23 83.1946C129.567 83.4512 129.928 83.6702 130.308 83.8481C130.856 84.0777 131.992 83.4242 132.38 83.1416C132.428 83.1103 132.468 83.0659 132.494 83.0131C132.521 82.9603 132.534 82.9011 132.531 82.8414Z" fill="black"/>
<path d="M107.431 78.5055C106.497 78.1787 104.358 78.6203 103.566 81.2342C103.341 81.9923 102.952 82.6856 102.429 83.26C101.906 83.8344 101.264 84.2744 100.552 84.5457C100.552 84.5457 103.642 85.7644 106.134 84.5457C108.155 83.5832 109.587 80.7043 108.888 79.7859C108.492 79.2581 107.996 78.8221 107.431 78.5055Z" fill="#1A2E35"/>
<path d="M116.71 60.5347C113.3 61.5061 108.711 65.7448 110.749 70.9462C108.736 72.3856 106.16 76.5272 109.174 79.1765C112.416 82.0288 120.39 78.0285 120.39 78.0285L120.449 76.6685L121.4 66.5484L116.71 60.5347Z" fill="#1A2E35"/>
<path d="M106.783 78.735C107.007 78.1993 107.29 77.6926 107.625 77.2249C107.684 77.1489 107.77 77.1007 107.863 77.0908C107.956 77.0808 108.049 77.11 108.122 77.1719L108.172 77.2249L110.058 79.3885C110.09 79.4221 110.116 79.462 110.133 79.506C110.151 79.5499 110.159 79.597 110.159 79.6446C110.159 79.6921 110.151 79.7392 110.133 79.7832C110.116 79.8271 110.09 79.867 110.058 79.9007C110.032 79.9341 109.997 79.9587 109.957 79.9713C109.575 80.1359 109.177 80.2573 108.77 80.3334C108.181 80.4217 107.271 79.5121 106.918 79.1412C106.859 79.0957 106.814 79.0326 106.79 78.96C106.766 78.8875 106.764 78.8091 106.783 78.735Z" fill="#3BDBAB"/>
<path opacity="0.3" d="M106.783 78.735C107.007 78.1993 107.29 77.6926 107.625 77.2249C107.684 77.1489 107.77 77.1007 107.863 77.0908C107.956 77.0808 108.049 77.11 108.122 77.1719L108.172 77.2249L110.058 79.3885C110.09 79.4221 110.116 79.462 110.133 79.506C110.151 79.5499 110.159 79.597 110.159 79.6446C110.159 79.6921 110.151 79.7392 110.133 79.7832C110.116 79.8271 110.09 79.867 110.058 79.9007C110.032 79.9341 109.997 79.9587 109.957 79.9713C109.575 80.1359 109.177 80.2573 108.77 80.3334C108.181 80.4217 107.271 79.5121 106.918 79.1412C106.859 79.0957 106.814 79.0326 106.79 78.96C106.766 78.8875 106.764 78.8091 106.783 78.735Z" fill="black"/>
<path d="M137.465 97.3945C139.074 98.7015 140.833 100.097 142.602 101.368C144.37 102.64 146.146 103.92 147.973 105.095C149.801 106.269 151.653 107.364 153.522 108.407L154.928 109.157L156.36 109.855C156.831 110.093 157.311 110.305 157.8 110.499L158.515 110.808C158.76 110.906 159.021 111.029 159.172 111.073C160.052 111.355 160.954 111.559 161.866 111.683C162.86 111.833 163.904 111.939 164.965 112.018C167.078 112.16 169.251 112.221 171.432 112.23C173.612 112.239 175.818 112.23 178.016 112.16L184.626 111.965L185.038 115.436C180.616 116.37 176.15 117.063 171.659 117.511C169.394 117.723 167.121 117.882 164.797 117.9C163.635 117.9 162.456 117.9 161.243 117.785C159.939 117.706 158.647 117.484 157.387 117.123C157 117.017 156.756 116.911 156.469 116.813L155.627 116.504C155.063 116.31 154.507 116.098 153.943 115.86L152.31 115.171L150.71 114.429C148.595 113.431 146.535 112.31 144.538 111.073C142.551 109.846 140.598 108.574 138.711 107.214C136.786 105.846 134.931 104.373 133.154 102.799L137.465 97.3945Z" fill="#FD897B"/>
<path d="M128.725 93.4294C130.822 91.7162 139.452 97.3238 142.079 99.6639L140.168 111.789C140.168 111.789 127.749 106.331 126.999 102.605C126.225 98.7102 127.142 94.7363 128.725 93.4294Z" fill="#1A2E35"/>
<path d="M183.708 112.266L188.912 108.036L189.324 114.579C189.324 114.579 185.737 116.911 183.371 115.462L183.708 112.266Z" fill="#FD897B"/>
<path d="M193.551 107.391L196.212 110.499L189.291 114.579L188.878 108.036L193.551 107.391Z" fill="#FD897B"/>
<path d="M94.6919 289.376L101.251 289.888L103.642 274.054L97.0916 273.542L94.6919 289.376Z" fill="#FD897B"/>
<path d="M48.2891 267.246L53.8547 270.92L63.765 258.592L58.1994 254.909L48.2891 267.246Z" fill="#FD897B"/>
<path d="M55.6146 269.604L50.4026 264.102C50.3126 264.008 50.1934 263.951 50.0667 263.941C49.94 263.931 49.8142 263.97 49.7121 264.049L44.9717 267.767C44.7531 267.952 44.6134 268.221 44.5835 268.514C44.5535 268.807 44.6355 269.1 44.8117 269.33L44.8875 269.418C46.7315 271.299 47.7166 272.112 50.0068 274.531C51.413 276.024 53.3243 278.346 55.2693 280.404C57.2144 282.461 59.252 280.545 58.6373 279.521C55.7914 274.867 56.305 273.127 56.1113 270.761C56.0881 270.324 55.9111 269.911 55.6146 269.604Z" fill="#1A2E35"/>
<path d="M101.689 288.899H94.296C94.166 288.899 94.04 288.947 93.94 289.034C93.84 289.121 93.7723 289.242 93.7487 289.376L92.5783 295.505C92.5313 295.774 92.587 296.051 92.7335 296.278C92.88 296.504 93.1055 296.661 93.3614 296.714C93.4397 296.723 93.5188 296.723 93.5971 296.714C96.1736 296.714 97.4282 296.511 100.678 296.511C102.674 296.511 108.256 296.723 111.043 296.723C113.83 296.723 114.108 293.862 112.972 293.606C107.92 292.44 104.442 290.842 102.783 289.305C102.478 289.034 102.089 288.889 101.689 288.899Z" fill="#1A2E35"/>
<path d="M103.642 274.054L102.312 282.85L95.8452 281.711L97.083 273.551L103.642 274.054Z" fill="#E77064"/>
<path d="M58.1995 254.918L63.7651 258.592L59.6646 263.696L53.9727 260.173L58.1995 254.918Z" fill="#E77064"/>
<path d="M99.6765 130.121L125.896 135.482C139.444 97.0059 136.497 95.7431 136.497 95.7431C134.592 94.6441 132.624 93.6708 130.603 92.829L130.25 92.6877C128.566 92.043 128.229 91.9459 125.989 91.2571C122.133 90.2945 118.537 89.4909 114.083 88.8286L113.241 88.705C112.399 88.599 111.633 88.5107 110.858 88.4312C110.336 88.3694 109.814 88.3341 109.317 88.2988L107.633 88.2016C104.754 88.0515 102.691 88.0957 102.691 88.0957C103.491 112.124 102.194 119.021 99.6765 130.121Z" fill="#1A2E35"/>
<path d="M117.872 75.0261C117.872 79.1943 117.257 86.7093 114.075 88.8463C114.075 88.8463 114.369 93.1381 121.484 94.5863C129.315 96.1847 125.981 91.2748 125.981 91.2748C121.914 89.332 122.613 86.0293 123.96 83.0621L117.872 75.0261Z" fill="#FD897B"/>
<path d="M120.356 78.3022L123.96 83.062C123.647 83.7514 123.388 84.4661 123.185 85.1991C121.594 84.6163 119.699 82.2849 119.817 80.457C119.869 79.7101 120.051 78.9796 120.356 78.3022Z" fill="#E77064"/>
<path d="M117.493 65.4535C116.651 72.2444 116.138 75.0967 118.731 79.203C122.629 85.3846 130.763 84.9872 133.533 78.6025C136.059 72.8537 137.002 62.7071 131.235 58.7774C130.259 58.1014 129.166 57.6337 128.018 57.401C126.87 57.1683 125.689 57.1752 124.544 57.4212C123.398 57.6672 122.31 58.1476 121.341 58.8349C120.373 59.5222 119.543 60.4029 118.899 61.4266C118.142 62.6377 117.661 64.0157 117.493 65.4535Z" fill="#FD897B"/>
<path d="M138.568 54.6976C138.687 55.7745 138.61 56.8652 138.341 57.912C138.281 57.5568 138.199 57.2058 138.097 56.8612C135.79 48.8605 125.4 50.7679 122.267 54.2119C117.215 52.693 112.408 53.9028 113.047 60.3935C113.127 62.0657 113.701 63.6705 114.689 64.9855C113.906 67.2638 114.689 70.8933 117.274 70.9993C120.912 71.1494 124.364 66.0982 125.753 63.3253C128.279 63.7757 131.917 64.2084 134.678 63.5019C135.142 63.7933 135.52 63.9964 135.52 63.9964C138.459 62.3451 140.699 60.7467 138.568 54.6976Z" fill="#1A2E35"/>
<path d="M115.253 70.0896C115.152 71.4071 115.548 72.7136 116.356 73.7279C117.451 75.0614 118.882 74.2754 119.396 72.6947C119.825 71.2641 119.766 68.8533 118.301 68.1027C118.047 67.9773 117.772 67.9058 117.491 67.8921C117.21 67.8784 116.93 67.9228 116.666 68.0229C116.401 68.1229 116.158 68.2766 115.951 68.4752C115.743 68.6737 115.575 68.9133 115.455 69.1801C115.329 69.4654 115.26 69.7751 115.253 70.0896Z" fill="#FD897B"/>
<path d="M125.501 135.482C125.501 135.482 125.602 190.074 121.341 210.632C116.912 232.02 103.886 280.678 103.886 280.678L94.4561 279.397C94.4561 279.397 101.84 230.245 104.981 208.989C108.408 185.826 106.311 131.561 106.311 131.561L125.501 135.482Z" fill="#3BDBAB"/>
<path opacity="0.3" d="M125.501 135.482C125.501 135.482 125.602 190.074 121.341 210.632C116.912 232.02 103.886 280.678 103.886 280.678L94.4561 279.397C94.4561 279.397 101.84 230.245 104.981 208.989C108.408 185.826 106.311 131.561 106.311 131.561L125.501 135.482Z" fill="black"/>
<path d="M105.495 281.534L92.8394 279.821L93.3782 275.123L107.743 276.889L105.495 281.534Z" fill="#1A2E35"/>
<path d="M118.975 134.069C118.975 134.069 104.855 179.185 97.8407 205.174C90.448 232.594 62.1063 262.919 62.1063 262.919L53.981 257.991C53.981 257.991 73.347 229.203 80.4619 203.62C94.9527 151.686 88.9997 140.683 99.6763 130.121L118.975 134.069Z" fill="#3BDBAB"/>
<path opacity="0.3" d="M118.975 134.069C118.975 134.069 104.855 179.185 97.8407 205.174C90.448 232.594 62.1063 262.919 62.1063 262.919L53.981 257.991C53.981 257.991 73.347 229.203 80.4619 203.62C94.9527 151.686 88.9997 140.683 99.6763 130.121L118.975 134.069Z" fill="black"/>
<path d="M63.4284 264.288L52.1372 257.453L54.9495 253.231L67.4869 260.482L63.4284 264.288Z" fill="#1A2E35"/>
<path d="M126.839 69.3126C126.738 69.8601 126.932 70.3546 127.277 70.4253C127.622 70.4959 127.976 70.1074 128.119 69.5422C128.262 68.977 128.026 68.4913 127.681 68.4207C127.336 68.35 126.94 68.7651 126.839 69.3126Z" fill="#1A2E35"/>
<path d="M132.725 70.5136C132.624 71.0612 132.818 71.5645 133.163 71.6352C133.508 71.7058 133.862 71.3172 133.963 70.7521C134.064 70.1869 133.87 69.7012 133.525 69.6394C133.18 69.5776 132.826 69.9573 132.725 70.5136Z" fill="#1A2E35"/>
<path d="M133.373 69.6483L134.695 69.5334C134.695 69.5334 133.862 70.4254 133.373 69.6483Z" fill="#1A2E35"/>
<path d="M130.999 71.1406C131.232 72.4794 131.64 73.778 132.211 74.9997C131.91 75.1479 131.58 75.2247 131.247 75.2247C130.914 75.2247 130.585 75.1479 130.283 74.9997L130.999 71.1406Z" fill="#FD5652"/>
<path d="M128.077 76.7658C127.373 76.645 126.708 76.3473 126.137 75.8983C125.567 75.4493 125.109 74.8622 124.802 74.1872C124.793 74.1681 124.788 74.1474 124.788 74.1264C124.787 74.1053 124.79 74.0843 124.797 74.0646C124.804 74.0449 124.815 74.0269 124.829 74.0115C124.843 73.9962 124.859 73.9839 124.877 73.9753C124.915 73.9603 124.958 73.9611 124.995 73.9775C125.033 73.9939 125.063 74.0247 125.079 74.0636C125.374 74.6839 125.803 75.223 126.332 75.6372C126.862 76.0514 127.477 76.3291 128.128 76.4479C128.148 76.4511 128.167 76.4585 128.184 76.4696C128.201 76.4807 128.216 76.4954 128.228 76.5127C128.24 76.5299 128.248 76.5495 128.253 76.5703C128.257 76.591 128.257 76.6124 128.254 76.6333C128.246 76.6747 128.223 76.7113 128.19 76.7359C128.157 76.7604 128.117 76.7711 128.077 76.7658Z" fill="#1A2E35"/>
<path d="M125.501 66.9637C125.419 66.9594 125.342 66.9236 125.285 66.8632C125.227 66.8029 125.193 66.7222 125.189 66.6369C125.192 66.5469 125.229 66.4616 125.29 66.3985C125.651 66.0429 126.087 65.7828 126.563 65.6399C127.039 65.497 127.541 65.4756 128.027 65.5773C128.106 65.6019 128.173 65.6581 128.214 65.7339C128.255 65.8097 128.266 65.8992 128.245 65.9835C128.236 66.0241 128.218 66.0624 128.194 66.096C128.17 66.1295 128.14 66.1578 128.106 66.1792C128.071 66.2005 128.033 66.2145 127.994 66.2203C127.954 66.2261 127.914 66.2237 127.875 66.2131C127.489 66.1413 127.093 66.1646 126.718 66.2811C126.342 66.3976 125.997 66.6041 125.711 66.8842C125.653 66.9379 125.578 66.9663 125.501 66.9637Z" fill="#1A2E35"/>
<path d="M135.992 68.1911C135.93 68.1918 135.87 68.1728 135.818 68.1365C135.767 68.1002 135.728 68.0484 135.706 67.9879C135.56 67.6097 135.333 67.2718 135.042 67.0007C134.752 66.7296 134.405 66.5325 134.03 66.4249C133.99 66.4174 133.951 66.4017 133.916 66.3785C133.882 66.3554 133.852 66.3253 133.829 66.2901C133.805 66.2548 133.788 66.215 133.78 66.173C133.771 66.1309 133.77 66.0875 133.777 66.0452C133.794 65.9607 133.84 65.8861 133.908 65.8367C133.975 65.7874 134.058 65.7672 134.139 65.7802C134.62 65.9061 135.064 66.1504 135.436 66.493C135.808 66.8355 136.097 67.2663 136.278 67.7495C136.295 67.7889 136.304 67.8314 136.305 67.8745C136.306 67.9177 136.299 67.9606 136.284 68.0008C136.269 68.0411 136.247 68.0778 136.218 68.1089C136.19 68.1401 136.156 68.165 136.118 68.1822L135.992 68.1911Z" fill="#1A2E35"/>
<path d="M127.547 74.1518C127.286 74.1529 127.029 74.0904 126.795 73.9693C126.561 73.8483 126.357 73.6719 126.199 73.4542C125.804 72.8065 125.539 72.08 125.423 71.3202C125.307 70.5605 125.342 69.7838 125.526 69.0388C126.006 66.2483 127.673 63.9788 129.248 63.9788C129.509 63.9827 129.767 64.0482 130.002 64.1705C130.236 64.2927 130.442 64.4686 130.603 64.6852C130.999 65.3329 131.263 66.0594 131.379 66.8192C131.495 67.579 131.46 68.3556 131.277 69.1006C130.797 71.8911 129.121 74.1518 127.547 74.1518ZM129.231 64.226C127.757 64.226 126.174 66.4161 125.711 69.1006C125.416 70.8668 125.652 72.4563 126.343 73.3129C126.483 73.504 126.662 73.6591 126.868 73.7662C127.074 73.8733 127.3 73.9297 127.53 73.9311C129.012 73.9311 130.586 71.7499 131.049 69.0653C131.228 68.3556 131.264 67.6147 131.156 66.8896C131.047 66.1645 130.796 65.471 130.418 64.853C130.282 64.6616 130.105 64.5056 129.902 64.3969C129.699 64.2882 129.475 64.2298 129.248 64.226H129.231Z" fill="#F9F9F9"/>
<path d="M134.089 75.035C133.816 75.031 133.548 74.9622 133.305 74.8337C133.061 74.7052 132.848 74.5204 132.683 74.2932C132.305 73.6987 132.049 73.0281 131.932 72.3242C131.814 71.6203 131.838 70.8984 132.001 70.2046C132.43 67.6083 134.047 65.5066 135.605 65.5066C135.877 65.5142 136.145 65.5855 136.389 65.7154C136.632 65.8452 136.844 66.0303 137.011 66.2572C137.385 66.8518 137.639 67.5208 137.756 68.2227C137.874 68.9246 137.852 69.6443 137.693 70.337C137.272 72.9421 135.655 75.035 134.089 75.035ZM135.579 65.7274C134.114 65.7274 132.599 67.7496 132.211 70.2487C132.06 70.9109 132.039 71.5983 132.149 72.2692C132.259 72.9402 132.498 73.5807 132.851 74.1519C133.002 74.3494 133.191 74.5108 133.406 74.625C133.621 74.7393 133.857 74.8038 134.097 74.8142C135.563 74.8142 137.087 72.8008 137.465 70.3017C137.615 69.64 137.637 68.9533 137.528 68.2828C137.42 67.6122 137.184 66.9714 136.834 66.3985C136.684 66.1994 136.496 66.0364 136.281 65.9206C136.066 65.8048 135.829 65.7389 135.588 65.7274H135.579Z" fill="#F9F9F9"/>
<path d="M57.551 272.809C56.709 272.809 55.867 271.449 55.3703 270.663C55.3536 270.637 55.3447 270.606 55.3447 270.575C55.3447 270.544 55.3536 270.513 55.3703 270.487C55.3883 270.461 55.4127 270.441 55.4409 270.428C55.4691 270.416 55.5 270.412 55.5302 270.416C55.7997 270.478 58.1152 271.008 58.4099 271.838C58.4434 271.929 58.4525 272.029 58.4361 272.125C58.4198 272.222 58.3787 272.312 58.3173 272.385C58.2382 272.522 58.1251 272.634 57.9901 272.709C57.8552 272.783 57.7034 272.818 57.551 272.809ZM55.7913 270.822C56.4396 271.847 57.0711 272.456 57.5258 272.483C57.6267 272.483 57.7262 272.457 57.8147 272.406C57.9031 272.355 57.9776 272.281 58.031 272.191C58.0594 272.16 58.0786 272.121 58.086 272.078C58.0935 272.036 58.089 271.992 58.0731 271.953C57.9215 271.511 56.7175 271.07 55.7913 270.822Z" fill="#3BDBAB"/>
<path d="M56.1703 270.822C55.9153 270.824 55.661 270.794 55.4125 270.734C55.3871 270.725 55.3641 270.71 55.3452 270.69C55.3262 270.67 55.3118 270.646 55.303 270.619C55.2864 270.568 55.2864 270.512 55.303 270.46C55.362 270.407 56.6502 269.074 57.6017 269.074H57.6691C57.7869 269.082 57.9018 269.116 58.0062 269.174C58.1107 269.232 58.2023 269.312 58.2753 269.41C58.3611 269.504 58.4144 269.625 58.4266 269.755C58.4388 269.885 58.4093 270.015 58.3427 270.125C58.0732 270.602 56.9955 270.822 56.1703 270.822ZM55.7914 270.478C56.5829 270.575 57.8627 270.337 58.1237 269.939C58.1658 269.878 58.1995 269.78 58.0732 269.613C58.0293 269.548 57.9712 269.495 57.9039 269.458C57.8366 269.421 57.7618 269.401 57.6859 269.401C56.9623 269.543 56.2996 269.92 55.7914 270.478Z" fill="#3BDBAB"/>
<path d="M104.105 290.109C103.408 290.091 102.715 290.003 102.034 289.844C102.002 289.837 101.972 289.82 101.95 289.794C101.927 289.769 101.912 289.737 101.908 289.703C101.904 289.669 101.91 289.635 101.925 289.605C101.94 289.575 101.963 289.551 101.992 289.535C102.304 289.376 105.006 287.963 105.789 288.44C105.86 288.488 105.919 288.553 105.96 288.63C106.001 288.707 106.023 288.793 106.025 288.881C106.034 289.03 106.009 289.179 105.952 289.316C105.895 289.453 105.807 289.573 105.697 289.667C105.228 289.997 104.668 290.152 104.105 290.109ZM102.565 289.632C104.004 289.879 105.091 289.817 105.512 289.438C105.584 289.373 105.64 289.291 105.677 289.199C105.714 289.107 105.729 289.007 105.722 288.908C105.724 288.875 105.717 288.841 105.702 288.812C105.687 288.782 105.665 288.758 105.638 288.74C105.217 288.484 103.718 289.085 102.565 289.623V289.632Z" fill="#3BDBAB"/>
<path d="M102.076 289.844H101.983C101.959 289.827 101.939 289.803 101.927 289.775C101.915 289.747 101.911 289.715 101.916 289.685C101.916 289.561 102.32 286.753 103.785 286.753H103.912C104.333 286.797 104.45 287.018 104.476 287.204C104.594 287.981 102.96 289.482 102.135 289.853L102.076 289.844ZM103.76 287.053C102.809 287.053 102.388 288.678 102.244 289.385C103.086 288.864 104.206 287.689 104.139 287.221C104.139 287.221 104.139 287.08 103.844 287.053H103.76Z" fill="#3BDBAB"/>
<path d="M127.488 68.4471L128.81 68.3235C128.81 68.3235 127.976 69.2242 127.488 68.4471Z" fill="#1A2E35"/>
<path d="M121.703 100.459C110.757 96.1051 107.339 89.588 107.6 88.2192L109.284 88.3252H109.612C110.032 88.3368 110.451 88.3751 110.867 88.44C111.641 88.5107 112.441 88.599 113.249 88.7138L114.091 88.8374C118.11 89.35 122.089 90.1616 125.997 91.2659C127.782 91.8134 128.372 91.99 129.365 92.3609L130.207 92.6965L130.561 92.8377C131.437 94.8158 131.243 98.8603 121.703 100.459Z" fill="#FD897B"/>
<path d="M121.703 100.459C110.757 96.1051 107.339 89.588 107.6 88.2192L109.284 88.3252H109.612C111.835 91.6368 116.702 96.2111 121.661 96.8381C125.652 95.955 129.416 94.9483 129.382 92.3609L130.224 92.6965L130.578 92.8377C131.437 94.8158 131.243 98.8603 121.703 100.459Z" fill="#3BDBAB"/>
<path opacity="0.3" d="M121.703 100.459C110.757 96.1051 107.339 89.588 107.6 88.2192L109.284 88.3252H109.612C111.835 91.6368 116.702 96.2111 121.661 96.8381C125.652 95.955 129.416 94.9483 129.382 92.3609L130.224 92.6965L130.578 92.8377C131.437 94.8158 131.243 98.8603 121.703 100.459Z" fill="black"/>
<path d="M99.5838 128.426L97.8998 130.651C97.7735 130.819 97.9588 131.057 98.2619 131.119L125.762 136.736C125.997 136.789 126.216 136.736 126.258 136.55L126.949 134.139C126.999 133.972 126.823 133.786 126.561 133.733L100.005 128.311C99.931 128.294 99.8544 128.296 99.7812 128.316C99.708 128.335 99.6404 128.373 99.5838 128.426Z" fill="#1A2E35"/>
<path d="M102.573 132.267L101.866 132.126C101.722 132.126 101.63 132.002 101.655 131.905L102.581 128.779C102.581 128.682 102.75 128.638 102.884 128.664L103.6 128.806C103.743 128.806 103.836 128.938 103.811 129.026L102.884 132.161C102.852 132.214 102.803 132.253 102.746 132.272C102.69 132.291 102.628 132.29 102.573 132.267Z" fill="#3BDBAB"/>
<path opacity="0.3" d="M102.573 132.267L101.866 132.126C101.722 132.126 101.63 132.002 101.655 131.905L102.581 128.779C102.581 128.682 102.75 128.638 102.884 128.664L103.6 128.806C103.743 128.806 103.836 128.938 103.811 129.026L102.884 132.161C102.852 132.214 102.803 132.253 102.746 132.272C102.69 132.291 102.628 132.29 102.573 132.267Z" fill="black"/>
<path d="M104.442 98.7545C104.122 100.847 103.819 103.17 103.6 105.342C103.381 107.515 103.187 109.758 103.086 112.018C103.03 113.131 102.997 114.244 102.985 115.356V118.668C103.027 120.83 103.188 122.989 103.465 125.132C103.626 125.865 103.911 126.562 104.307 127.19C104.814 128.048 105.377 128.868 105.991 129.645C107.336 131.32 108.776 132.909 110.302 134.404C111.843 135.959 113.46 137.46 115.119 138.926C116.777 140.392 118.487 141.849 120.171 143.253L118.36 146.185C114.397 143.908 110.608 141.313 107.027 138.422C105.176 136.939 103.432 135.316 101.807 133.565C100.938 132.629 100.141 131.622 99.4237 130.554C98.5329 129.293 97.8994 127.853 97.5629 126.324L97.2514 124.452C97.1419 123.843 97.0661 123.233 96.9988 122.633C96.8304 121.414 96.7377 120.204 96.6451 118.995C96.4697 116.589 96.4163 114.174 96.4851 111.762C96.5525 109.369 96.6788 106.985 96.9061 104.609C97.1335 102.234 97.4197 99.9025 97.8744 97.4475L104.442 98.7545Z" fill="#FD897B"/>
<path d="M98.8512 89.9414C95.2475 92.9969 96.1063 102.075 96.1063 102.075L108.231 106.261C108.231 106.261 107.675 95.7962 107.086 92.0343C106.362 87.5571 102.388 86.9301 98.8512 89.9414Z" fill="#1A2E35"/>
<path d="M118.689 142.688L124.17 140.551L123.328 146.017C123.328 146.017 119.354 147.518 117.316 145.593L118.689 142.688Z" fill="#FD897B"/>
<path d="M130.696 141.363V145.584L123.328 146.017L124.17 140.551L130.696 141.363Z" fill="#FD897B"/>
<path d="M123.749 136.594L123.042 136.453C122.899 136.453 122.806 136.329 122.831 136.232L123.758 133.106C123.758 133.009 123.926 132.965 124.069 132.991L124.776 133.133C124.919 133.133 125.012 133.265 124.987 133.354L124.061 136.488C124.035 136.577 123.926 136.63 123.749 136.594Z" fill="#3BDBAB"/>
<path opacity="0.3" d="M123.749 136.594L123.042 136.453C122.899 136.453 122.806 136.329 122.831 136.232L123.758 133.106C123.758 133.009 123.926 132.965 124.069 132.991L124.776 133.133C124.919 133.133 125.012 133.265 124.987 133.354L124.061 136.488C124.035 136.577 123.926 136.63 123.749 136.594Z" fill="black"/>
<path d="M113.165 134.422L112.449 134.281C112.306 134.281 112.214 134.157 112.247 134.06L113.174 130.934C113.174 130.837 113.334 130.793 113.477 130.819L114.192 130.96C114.327 130.96 114.428 131.093 114.394 131.181L113.468 134.316C113.443 134.422 113.308 134.466 113.165 134.422Z" fill="#3BDBAB"/>
<path opacity="0.3" d="M113.165 134.422L112.449 134.281C112.306 134.281 112.214 134.157 112.247 134.06L113.174 130.934C113.174 130.837 113.334 130.793 113.477 130.819L114.192 130.96C114.327 130.96 114.428 131.093 114.394 131.181L113.468 134.316C113.443 134.422 113.308 134.466 113.165 134.422Z" fill="black"/>
<path d="M59.5383 185.914L103.188 285.897C104.188 288.169 106.005 289.934 108.242 290.806C110.479 291.677 112.954 291.586 115.127 290.55L122.057 287.23L282.517 210.181C284.684 209.135 286.369 207.232 287.202 204.887C288.035 202.542 287.949 199.947 286.963 197.668L248.391 109.36L243.339 97.6947C242.334 95.4256 240.517 93.6639 238.281 92.7924C236.046 91.921 233.572 92.0103 231.399 93.0408L64.0009 173.401C61.8335 174.447 60.1482 176.35 59.3123 178.694C58.4764 181.038 58.5577 183.633 59.5383 185.914Z" fill="#3BDBAB"/>
<path opacity="0.1" d="M59.5383 185.914L103.188 285.897C104.188 288.169 106.005 289.934 108.242 290.806C110.479 291.677 112.954 291.586 115.127 290.55L122.057 287.23L282.517 210.181C284.684 209.135 286.369 207.232 287.202 204.887C288.035 202.542 287.949 199.947 286.963 197.668L248.391 109.36L243.339 97.6947C242.334 95.4256 240.517 93.6639 238.281 92.7924C236.046 91.921 233.572 92.0103 231.399 93.0408L64.0009 173.401C61.8335 174.447 60.1482 176.35 59.3123 178.694C58.4764 181.038 58.5577 183.633 59.5383 185.914Z" fill="white"/>
<path d="M261.026 138.248L77.2568 226.489L98.764 275.757L282.533 187.516L261.026 138.248Z" fill="#3BDBAB"/>
<path opacity="0.3" d="M261.026 138.248L77.2568 226.489L98.764 275.757L282.533 187.516L261.026 138.248Z" fill="white"/>
<path d="M253.416 161.041L137.286 216.803L144.983 234.436L261.114 178.673L253.416 161.041Z" fill="#3BDBAB"/>
<path opacity="0.8" d="M253.416 161.041L137.286 216.803L144.983 234.436L261.114 178.673L253.416 161.041Z" fill="white"/>
<path d="M254.736 120.294L70.8191 209.339L82.3981 235.645L266.315 146.6L254.736 120.294Z" fill="#3BDBAB"/>
<path opacity="0.3" d="M254.736 120.294L70.8191 209.339L82.3981 235.645L266.315 146.6L254.736 120.294Z" fill="black"/>
<path d="M84.4952 187.168L122.057 287.195L282.517 210.146C284.684 209.1 286.369 207.197 287.202 204.852C288.035 202.507 287.949 199.911 286.962 197.633L248.39 109.325L89.5808 174.92C87.364 175.845 85.5855 177.652 84.6329 179.946C83.6803 182.24 83.6308 184.836 84.4952 187.168Z" fill="#3BDBAB"/>
<path d="M296.879 155.55L296.085 155.843L297.4 159.767L298.194 159.474L296.879 155.55Z" fill="#3BDBAB"/>
<path opacity="0.1" d="M296.879 155.55L296.085 155.843L297.4 159.767L298.194 159.474L296.879 155.55Z" fill="white"/>
<path d="M290.249 135.827L289.454 136.119L294.632 151.584L295.427 151.291L290.249 135.827Z" fill="#3BDBAB"/>
<path opacity="0.1" d="M290.249 135.827L289.454 136.119L294.632 151.584L295.427 151.291L290.249 135.827Z" fill="white"/>
<path d="M95.6685 175.264L269.373 111.285C271.627 110.463 274.099 110.609 276.249 111.693C278.4 112.777 280.054 114.71 280.85 117.069L315.591 220.822C316.375 223.186 316.237 225.779 315.205 228.036C314.174 230.293 312.332 232.03 310.084 232.868L136.379 296.847C134.124 297.665 131.653 297.516 129.502 296.433C127.351 295.349 125.695 293.42 124.894 291.063L90.1534 187.31C89.3689 184.945 89.5086 182.351 90.542 180.094C91.5754 177.837 93.4184 176.101 95.6685 175.264Z" fill="#3BDBAB"/>
<path opacity="0.1" d="M95.6685 175.264L269.373 111.285C271.627 110.463 274.099 110.609 276.249 111.693C278.4 112.777 280.054 114.71 280.85 117.069L315.591 220.822C316.375 223.186 316.237 225.779 315.205 228.036C314.174 230.293 312.332 232.03 310.084 232.868L136.379 296.847C134.124 297.665 131.653 297.516 129.502 296.433C127.351 295.349 125.695 293.42 124.894 291.063L90.1534 187.31C89.3689 184.945 89.5086 182.351 90.542 180.094C91.5754 177.837 93.4184 176.101 95.6685 175.264Z" fill="white"/>
<path d="M294.149 156.774L103.452 227.009L118.565 272.144L309.262 201.908L294.149 156.774Z" fill="#3BDBAB"/>
<path opacity="0.3" d="M294.149 156.774L103.452 227.009L118.565 272.144L309.262 201.908L294.149 156.774Z" fill="white"/>
<path d="M271.322 134.809L231.902 149.327L234.059 155.768L273.479 141.249L271.322 134.809Z" fill="#3BDBAB"/>
<path opacity="0.8" d="M271.322 134.809L231.902 149.327L234.059 155.768L273.479 141.249L271.322 134.809Z" fill="white"/>
<path d="M297.733 213.681L266.107 225.329L267.234 228.695L298.86 217.047L297.733 213.681Z" fill="#3BDBAB"/>
<path opacity="0.8" d="M297.733 213.681L266.107 225.329L267.234 228.695L298.86 217.047L297.733 213.681Z" fill="white"/>
<path d="M299.885 220.121L259.13 235.131L260.257 238.497L301.012 223.487L299.885 220.121Z" fill="#3BDBAB"/>
<path opacity="0.8" d="M299.885 220.121L259.13 235.131L260.257 238.497L301.012 223.487L299.885 220.121Z" fill="white"/>
<path d="M154.567 269.292L134.19 276.797L136.614 284.038L156.991 276.532L154.567 269.292Z" fill="#3BDBAB"/>
<path opacity="0.8" d="M154.567 269.292L134.19 276.797L136.614 284.038L156.991 276.532L154.567 269.292Z" fill="white"/>
<path d="M263.521 207.276L287.316 198.516C288.571 198.048 289.598 197.079 290.175 195.821C290.752 194.562 290.832 193.116 290.398 191.796C289.951 190.48 289.028 189.402 287.828 188.797C286.628 188.192 285.249 188.108 283.99 188.564L260.187 197.333C258.933 197.801 257.905 198.769 257.328 200.028C256.751 201.286 256.671 202.733 257.105 204.053C257.553 205.369 258.479 206.446 259.681 207.05C260.882 207.653 262.263 207.735 263.521 207.276Z" fill="#3BDBAB"/>
<path d="M222.76 222.288L246.563 213.519C247.808 213.049 248.828 212.085 249.402 210.835C249.977 209.585 250.061 208.149 249.637 206.834C249.188 205.52 248.264 204.445 247.064 203.841C245.865 203.238 244.486 203.155 243.229 203.611L219.434 212.38C218.18 212.848 217.152 213.817 216.575 215.075C215.998 216.334 215.918 217.78 216.352 219.1C216.807 220.408 217.734 221.475 218.933 222.072C220.132 222.668 221.507 222.746 222.76 222.288Z" fill="#3BDBAB"/>
<path d="M182.024 237.301L205.827 228.532C207.069 228.058 208.085 227.093 208.656 225.843C209.227 224.594 209.309 223.159 208.884 221.847C208.436 220.533 207.511 219.457 206.312 218.854C205.112 218.25 203.734 218.168 202.476 218.624L178.656 227.357C177.403 227.827 176.378 228.797 175.802 230.055C175.227 231.313 175.148 232.759 175.583 234.077C176.031 235.4 176.96 236.482 178.168 237.086C179.375 237.69 180.762 237.768 182.024 237.301Z" fill="#3BDBAB"/>
<path d="M141.246 252.313L165.049 243.544C166.296 243.076 167.317 242.113 167.893 240.863C168.47 239.612 168.555 238.175 168.131 236.859C167.683 235.545 166.759 234.47 165.559 233.866C164.359 233.263 162.981 233.18 161.723 233.636L137.92 242.405C136.666 242.873 135.638 243.842 135.061 245.1C134.484 246.359 134.404 247.805 134.838 249.125C135.293 250.433 136.22 251.5 137.419 252.097C138.618 252.693 139.993 252.771 141.246 252.313Z" fill="#3BDBAB"/>
<g opacity="0.8">
<path d="M263.521 207.276L287.316 198.516C288.571 198.048 289.598 197.079 290.175 195.821C290.752 194.562 290.832 193.116 290.398 191.796C289.951 190.48 289.028 189.402 287.828 188.797C286.628 188.192 285.249 188.108 283.99 188.564L260.187 197.333C258.933 197.801 257.905 198.769 257.328 200.028C256.751 201.286 256.671 202.733 257.105 204.053C257.553 205.369 258.479 206.446 259.681 207.05C260.882 207.653 262.263 207.735 263.521 207.276Z" fill="white"/>
<path d="M222.76 222.288L246.563 213.519C247.808 213.049 248.828 212.085 249.402 210.835C249.977 209.585 250.061 208.149 249.637 206.834C249.188 205.52 248.264 204.445 247.064 203.841C245.865 203.238 244.486 203.155 243.229 203.611L219.434 212.38C218.18 212.848 217.152 213.817 216.575 215.075C215.998 216.334 215.918 217.78 216.352 219.1C216.807 220.408 217.734 221.475 218.933 222.072C220.132 222.668 221.507 222.746 222.76 222.288Z" fill="white"/>
<path d="M182.024 237.301L205.827 228.532C207.069 228.058 208.085 227.093 208.656 225.843C209.227 224.594 209.309 223.159 208.884 221.847C208.436 220.533 207.511 219.457 206.312 218.854C205.112 218.25 203.734 218.168 202.476 218.624L178.656 227.357C177.403 227.827 176.378 228.797 175.802 230.055C175.227 231.313 175.148 232.759 175.583 234.077C176.031 235.4 176.96 236.482 178.168 237.086C179.375 237.69 180.762 237.768 182.024 237.301Z" fill="white"/>
<path d="M141.246 252.313L165.049 243.544C166.296 243.076 167.317 242.113 167.893 240.862C168.47 239.612 168.555 238.175 168.131 236.859C167.683 235.545 166.759 234.47 165.559 233.866C164.359 233.263 162.981 233.18 161.723 233.636L137.92 242.405C136.666 242.873 135.638 243.842 135.061 245.1C134.484 246.358 134.404 247.805 134.838 249.125C135.293 250.433 136.22 251.5 137.419 252.096C138.618 252.693 139.993 252.771 141.246 252.313Z" fill="white"/>
</g>
<path d="M275.89 159.379L254.71 167.18C252.911 167.843 251.965 169.909 252.596 171.796L257.01 184.977C257.642 186.864 259.612 187.856 261.411 187.193L282.591 179.393C284.39 178.73 285.336 176.664 284.704 174.777L280.291 161.596C279.659 159.709 277.688 158.717 275.89 159.379Z" fill="#3BDBAB"/>
<path opacity="0.3" d="M275.89 159.379L254.71 167.18C252.911 167.843 251.965 169.909 252.596 171.796L257.01 184.977C257.642 186.864 259.612 187.856 261.411 187.193L282.591 179.393C284.39 178.73 285.336 176.664 284.704 174.777L280.291 161.596C279.659 159.709 277.688 158.717 275.89 159.379Z" fill="black"/>
<path d="M148.075 183.874C147.546 182.291 146.726 180.833 145.66 179.583C144.594 178.333 143.303 177.315 141.862 176.589C140.421 175.862 138.857 175.44 137.26 175.348C135.664 175.256 134.065 175.494 132.557 176.05L115.447 182.788L115.228 182.85L114.723 183.071L114.411 183.195C111.649 184.503 109.473 186.877 108.336 189.824C107.199 192.771 107.188 196.064 108.305 199.019C109.422 201.975 111.582 204.365 114.336 205.694C117.09 207.022 120.226 207.187 123.093 206.155L139.293 200.503C139.759 200.393 140.22 200.258 140.673 200.097C141.009 199.974 141.338 199.832 141.659 199.673C144.412 198.35 146.596 195.998 147.782 193.076C148.969 190.154 149.073 186.873 148.075 183.874Z" fill="#3BDBAB"/>
<path opacity="0.8" d="M148.075 183.874C147.546 182.291 146.726 180.833 145.66 179.583C144.594 178.333 143.303 177.315 141.862 176.589C140.421 175.862 138.857 175.44 137.26 175.348C135.664 175.256 134.065 175.494 132.557 176.05L115.447 182.788L115.228 182.85L114.723 183.071L114.411 183.195C111.649 184.503 109.473 186.877 108.336 189.824C107.199 192.771 107.188 196.064 108.305 199.019C109.422 201.975 111.582 204.365 114.336 205.694C117.09 207.022 120.226 207.187 123.093 206.155L139.293 200.503C139.759 200.393 140.22 200.258 140.673 200.097C141.009 199.974 141.338 199.832 141.659 199.673C144.412 198.35 146.596 195.998 147.782 193.076C148.969 190.154 149.073 186.873 148.075 183.874Z" fill="white"/>
</svg>
