<svg width="28" height="28" viewBox="0 0 28 28" fill="none" xmlns="http://www.w3.org/2000/svg">
<path d="M21.4126 17.8825C21.2066 18.9016 20.6549 19.8182 19.8509 20.4774C19.0468 21.1366 18.0398 21.4978 17.0001 21.5C14.2162 21.497 11.5472 20.3898 9.57873 18.4213C7.61025 16.4528 6.50304 13.7838 6.50007 11C6.50222 9.96026 6.86343 8.95321 7.52261 8.14917C8.18179 7.34512 9.09846 6.79345 10.1176 6.58747C10.4397 6.52372 10.7739 6.56746 11.0688 6.71198C11.3637 6.85649 11.6031 7.0938 11.7501 7.38747L13.1851 10.2625C13.3028 10.4986 13.3561 10.7617 13.3396 11.0251C13.3231 11.2884 13.2375 11.5428 13.0913 11.7625L12.0263 13.36C12.5746 14.5033 13.4967 15.4254 14.6401 15.9737L16.2376 14.9087C16.4573 14.7625 16.7116 14.6769 16.975 14.6604C17.2383 14.644 17.5014 14.6973 17.7376 14.815L20.6126 16.25C20.9062 16.397 21.1435 16.6363 21.2881 16.9312C21.4326 17.2261 21.4763 17.5603 21.4126 17.8825ZM27.5001 14C27.5006 16.3124 26.907 18.5862 25.7764 20.6034C24.6458 22.6206 23.0159 24.3136 21.0431 25.52C19.0703 26.7264 16.8207 27.4059 14.5099 27.4932C12.199 27.5805 9.90455 27.0728 7.84631 26.0187L3.79257 27.375C3.35127 27.5237 2.8772 27.5462 2.42379 27.44C1.97038 27.3337 1.55566 27.103 1.22637 26.7737C0.897083 26.4444 0.666312 26.0297 0.56007 25.5762C0.453828 25.1228 0.476339 24.6488 0.625066 24.2075L1.97632 20.1537C1.04843 18.3362 0.544665 16.3319 0.502902 14.2917C0.461139 12.2514 0.882463 10.2282 1.7352 8.37422C2.58793 6.52022 3.84988 4.88368 5.42617 3.58762C7.00245 2.29157 8.85205 1.36974 10.8359 0.891432C12.8198 0.413128 14.8862 0.390801 16.8799 0.82613C18.8737 1.26146 20.7428 2.14311 22.3467 3.40481C23.9506 4.6665 25.2476 6.2754 26.1402 8.11053C27.0328 9.94567 27.4977 11.9593 27.5001 14ZM24.5001 14C24.4995 12.3894 24.1283 10.8006 23.4155 9.35635C22.7026 7.91215 21.667 6.65129 20.3889 5.67133C19.1107 4.69136 17.6243 4.01856 16.0446 3.70495C14.4648 3.39135 12.8341 3.44536 11.2786 3.8628C9.72305 4.28024 8.2844 5.04993 7.07391 6.11232C5.86343 7.1747 4.91356 8.50132 4.29779 9.98952C3.68202 11.4777 3.41686 13.0877 3.52281 14.6947C3.62876 16.3018 4.10299 17.863 4.90882 19.2575C5.01532 19.4414 5.08154 19.6458 5.10309 19.8572C5.12464 20.0686 5.10103 20.2821 5.03382 20.4837L3.79257 24.2075L7.51631 22.9662C7.6695 22.9152 7.82986 22.889 7.99132 22.8887C8.25476 22.8892 8.51344 22.959 8.74132 23.0912C10.3376 24.0149 12.149 24.5018 13.9932 24.503C15.8375 24.5042 17.6495 24.0196 19.247 23.098C20.8445 22.1765 22.171 20.8504 23.0932 19.2532C24.0154 17.6561 24.5006 15.8442 24.5001 14Z" fill="#464646"/>
</svg>
