<svg width="50" height="73" viewBox="0 0 50 73" fill="none" xmlns="http://www.w3.org/2000/svg">
<path d="M48.2526 14.2305L30.2121 8.87333L39.1312 4.45811C39.6946 4.17707 40.1222 3.68596 40.3198 3.09283C40.5175 2.4997 40.4691 1.85312 40.1852 1.29534C39.9013 0.737555 39.4053 0.314261 38.8062 0.118574C38.2071 -0.0771139 37.554 -0.0291648 36.9907 0.251873L23.1898 7.08075C16.9874 7.2403 11.0929 9.79075 6.76151 14.189C2.43014 18.5872 0.00410505 24.4858 0 30.6286V61.2261C0 61.8506 0.250585 62.4496 0.696629 62.8912C1.14267 63.3328 1.74764 63.5809 2.37844 63.5809C3.00924 63.5809 3.6142 63.3328 4.06025 62.8912C4.50629 62.4496 4.75688 61.8506 4.75688 61.2261V51.8069H9.51375V68.2904C9.51375 69.5395 10.0149 70.7374 10.907 71.6206C11.7991 72.5038 13.009 73 14.2706 73H33.2981C34.5597 73 35.7697 72.5038 36.6617 71.6206C37.5538 70.7374 38.055 69.5395 38.055 68.2904V30.6139C38.0502 27.2765 36.8541 24.0483 34.678 21.4995C32.5019 18.9508 29.4858 17.2456 26.1628 16.6853V12.5851L46.8849 18.7399C47.1863 18.8371 47.5043 18.8736 47.8202 18.8474C48.1361 18.8212 48.4435 18.7328 48.7243 18.5873C49.0052 18.4417 49.2538 18.2421 49.4556 18.0001C49.6575 17.7581 49.8084 17.4786 49.8995 17.1781C49.9907 16.8775 50.0202 16.5619 49.9864 16.2499C49.9527 15.9378 49.8562 15.6356 49.7028 15.361C49.5493 15.0864 49.342 14.8449 49.0929 14.6508C48.8439 14.4566 48.5582 14.3137 48.2526 14.2305ZM4.75688 47.0974V30.6139C4.76264 26.0276 6.45624 21.6006 9.52071 18.1614C12.5852 14.7221 16.8105 12.5063 21.4059 11.9287V16.6853C18.0829 17.2456 15.0669 18.9508 12.8907 21.4995C10.7146 24.0483 9.5185 27.2765 9.51375 30.6139V47.0974H4.75688ZM33.2981 68.2904H14.2706V51.8069H33.2981V68.2904ZM33.2981 30.6139V47.0974H14.2706V30.6139C14.2706 28.1158 15.273 25.72 17.0571 23.9535C18.8413 22.1871 21.2612 21.1947 23.7844 21.1947C26.3076 21.1947 28.7274 22.1871 30.5116 23.9535C32.2958 25.72 33.2981 28.1158 33.2981 30.6139Z" fill="#C3DB3D"/>
</svg>
