<svg width="116" height="104" viewBox="0 0 116 104" fill="none" xmlns="http://www.w3.org/2000/svg">
<path d="M13.8792 103.929C13.8792 80.4704 32.6522 61.4663 55.8251 61.4663C78.9981 61.4663 97.7711 80.4704 97.7711 103.929" stroke="#EFEFEF" stroke-miterlimit="10"/>
<path d="M70.7849 64.1387C77.2381 74.5315 81.0514 88.4877 81.0514 103.928" stroke="#EFEFEF" stroke-miterlimit="10"/>
<path d="M42.3319 64.1387C35.8787 74.5315 32.0654 88.4877 32.0654 103.928" stroke="#EFEFEF" stroke-miterlimit="10"/>
<path d="M55.8252 61.4663V103.632" stroke="#EFEFEF" stroke-miterlimit="10"/>
<path d="M20.3323 83.7368H92.7845" stroke="#EFEFEF" stroke-miterlimit="10"/>
<path d="M47.9053 48.698C47.9053 47.2133 46.732 45.7286 44.972 45.7286C44.6787 45.7286 44.092 45.7286 43.7987 46.0256C43.212 44.8378 42.332 44.244 41.1587 43.947C41.1587 43.6501 41.452 43.3531 41.452 43.0562C41.452 40.3837 39.3987 38.3052 36.7588 38.3052C35.5855 38.3052 34.4122 38.8991 33.5322 39.4929C33.2388 35.0388 29.4256 31.4756 25.0256 31.4756C21.2124 31.4756 17.6924 34.148 16.8124 37.7113C16.5191 37.7113 15.9325 37.7113 15.6391 37.7113C12.9992 37.7113 10.6525 39.4929 10.0659 42.1654C9.47923 41.8684 8.89257 41.8684 8.01258 41.8684C5.0793 41.8684 2.73267 44.244 2.73267 47.2133C2.73267 48.1042 3.026 48.995 3.61265 49.8858H47.612C47.9053 49.5889 47.9053 49.2919 47.9053 48.698Z" fill="#E6E7E8"/>
<path d="M14.7592 39.1956C17.6925 39.1956 19.7458 41.5711 19.7458 44.2435C19.7458 44.8374 19.7458 45.4313 19.4524 46.0252C20.0391 45.1343 20.3324 44.2435 20.3324 43.0558C20.3324 40.0864 17.9858 38.0078 15.3458 38.0078C12.9992 38.0078 11.2392 39.4925 10.6526 41.5711C11.5326 40.0864 12.9992 39.1956 14.7592 39.1956Z" fill="#EFEFEF"/>
<path d="M39.9855 44.5406C38.8122 45.4314 37.0522 45.1344 36.1722 43.9467C35.8789 43.6497 35.8789 43.3528 35.8789 43.0559C35.8789 43.6497 36.1722 44.2436 36.4656 44.5406C37.3456 45.7283 39.1055 46.0252 40.2788 45.1344C41.1588 44.5405 41.7455 43.0559 41.4521 42.165C41.4521 43.0559 40.8655 44.2436 39.9855 44.5406Z" fill="#EFEFEF"/>
<path d="M115.371 44.2441H82.8113" stroke="#EFEFEF" stroke-miterlimit="10"/>
<path d="M95.7176 37.1172H66.3848" stroke="#EFEFEF" stroke-miterlimit="10"/>
<path d="M37.052 14.2529H19.7456" stroke="#EFEFEF" stroke-miterlimit="10"/>
<path d="M43.2118 6.23535H11.239" stroke="#EFEFEF" stroke-miterlimit="10"/>
<path d="M0.385986 14.2529H16.8124" stroke="#EFEFEF" stroke-miterlimit="10"/>
<path d="M55.5317 0.296875C41.4519 0.296875 29.7188 11.8775 29.7188 26.4275C29.7188 40.9775 55.5317 70.0775 55.5317 70.0775C55.5317 70.0775 81.3446 40.6806 81.3446 26.4275C81.3446 12.1744 69.9048 0.296875 55.5317 0.296875ZM55.5317 38.8989C47.3185 38.8989 40.5719 32.0693 40.5719 23.755C40.5719 15.4408 47.3185 8.61116 55.5317 8.61116C63.7449 8.61116 70.4914 15.4408 70.4914 23.755C70.4914 32.0693 63.7449 38.8989 55.5317 38.8989Z" fill="#C3DB3D"/>
<path d="M55.5317 0.296875C55.2384 0.296875 54.9451 0.296875 54.9451 0.296875C68.7315 0.593814 79.878 12.1744 79.878 26.4275C79.878 39.4928 59.0517 64.4357 54.9451 69.1867C55.5317 69.7806 55.5317 70.0775 55.5317 70.0775C55.5317 70.0775 81.3446 40.6806 81.3446 26.4275C81.3446 12.1744 69.9048 0.296875 55.5317 0.296875Z" fill="#C3DB3D"/>
<path d="M54.9451 8.9082C54.6518 8.9082 54.3584 8.9082 54.3584 8.9082C46.1452 8.9082 39.3987 15.7378 39.3987 24.0521C39.3987 32.3664 46.1452 39.196 54.3584 39.196C54.6518 39.196 54.9451 39.196 54.9451 39.196C47.0252 38.899 40.8653 32.3664 40.8653 24.0521C40.8653 15.7378 47.0252 9.20514 54.9451 8.9082Z" fill="#C3DB3D"/>
<path d="M55.5318 38.8991C63.7938 38.8991 70.4915 32.1189 70.4915 23.7552C70.4915 15.3915 63.7938 8.61133 55.5318 8.61133C47.2697 8.61133 40.572 15.3915 40.572 23.7552C40.572 32.1189 47.2697 38.8991 55.5318 38.8991Z" stroke="#EFEFEF" stroke-miterlimit="10"/>
<path d="M107.744 13.9561C107.744 12.7684 106.571 11.5806 105.398 11.5806C105.104 11.5806 104.811 11.5806 104.518 11.8776C103.931 10.9867 103.344 10.3929 102.171 10.0959C102.171 9.79898 102.171 9.50204 102.171 9.50204C102.171 7.42347 100.411 5.64184 98.3577 5.64184C97.1843 5.64184 96.3044 5.93878 95.7177 6.82959C95.4244 2.96939 92.4911 0 88.6778 0C85.4512 0 82.5179 2.37551 81.6379 5.3449C81.3446 5.3449 81.0513 5.3449 80.7579 5.3449C78.4113 5.3449 76.6514 6.8296 76.0647 9.20511C75.478 8.90817 74.8914 8.90817 74.3047 8.90817C71.6648 8.90817 69.9048 10.9867 69.9048 13.3622C69.9048 14.2531 70.1981 14.8469 70.4914 15.7378H107.744C107.744 14.8469 107.744 14.2531 107.744 13.9561Z" fill="#E6E7E8"/>
<path d="M79.878 5.93867C82.2246 5.93867 84.2779 8.01724 84.2779 10.3928C84.2779 10.9866 84.2779 11.2836 83.9846 11.8774C84.5712 11.2836 84.5712 10.3928 84.5712 9.50193C84.5712 7.12642 82.5179 5.04785 80.1713 5.04785C78.4113 5.04785 76.6514 6.23561 76.0647 8.01724C77.238 6.53255 78.4113 5.93867 79.878 5.93867Z" fill="#EFEFEF"/>
<path d="M101.291 10.393C100.118 11.2838 98.651 10.9869 98.0643 9.79915C97.771 9.50221 97.771 9.20527 97.771 9.20527C97.771 9.79915 98.0643 10.0961 98.0643 10.393C98.9443 11.5808 100.411 11.5808 101.291 10.9869C102.171 10.393 102.464 9.20527 102.171 8.31445C102.171 9.20527 101.878 10.0961 101.291 10.393Z" fill="#EFEFEF"/>
</svg>
