<svg width="51" height="50" viewBox="0 0 51 50" fill="none" xmlns="http://www.w3.org/2000/svg">
<path fill-rule="evenodd" clip-rule="evenodd" d="M35.7942 31.6398L30.801 30.6891C29.9505 30.5281 29.384 29.6531 29.5337 28.7367C29.6835 27.8195 30.493 27.2086 31.3435 27.3695L36.8029 28.4086C38.6265 28.7836 39.8312 30.5641 39.4947 32.4281C39.487 32.4703 39.4739 32.5078 39.4662 32.5492C39.2138 33.4656 38.7909 34.3047 38.1712 35.0266C34.6096 39.1711 26.1635 37.9773 19.3073 32.3578C12.4503 26.7406 9.77845 18.8258 13.3416 14.682C14.189 13.6945 15.3173 13.0172 16.6324 12.6266C16.7427 12.5984 16.8492 12.5586 16.9596 12.5422C16.9596 12.5422 16.9611 12.5398 16.9635 12.5398C18.4491 12.3086 19.9308 13.1352 20.5243 14.5836L22.4684 19.8563C22.7562 20.6359 22.3487 21.4984 21.5569 21.782C20.7674 22.0664 19.8938 21.6648 19.6059 20.8852L17.8193 16.0383C17.6719 15.7187 17.3146 15.5516 16.9773 15.6672C16.4834 15.9039 16.0528 16.2164 15.707 16.6195C13.2413 19.4891 15.7402 25.5023 21.2914 30.0492C26.8426 34.5961 33.3423 35.9578 35.8073 33.0891C35.9593 32.9109 36.0859 32.7195 36.1994 32.5195C36.2287 32.4633 36.2534 32.4047 36.2642 32.3383C36.3151 32.0133 36.1052 31.7141 35.7942 31.6398ZM5.59401 32.8125C5.59401 33.6758 4.90329 34.375 4.05051 34.375C3.19772 34.375 2.507 33.6758 2.507 32.8125C2.507 31.9492 3.19772 31.25 4.05051 31.25C4.90329 31.25 5.59401 31.9492 5.59401 32.8125ZM25.6595 50C21.7815 50 18.118 49.0836 14.8535 47.4695C14.8033 47.4477 14.7547 47.4242 14.7076 47.4016C14.6605 47.3789 14.6119 47.3578 14.5648 47.3336C13.6611 46.875 12.5946 46.7367 11.5434 47.0266C11.5234 47.032 11.5025 47.0359 11.4817 47.0414L7.00246 48.3008C6.98625 48.3047 6.96696 48.3047 6.94998 48.3109C6.35882 48.4758 5.71903 48.4875 5.0862 48.3109C3.21702 47.7914 2.11881 45.8375 2.63203 43.9453C2.64283 43.9016 2.64669 43.8688 2.65595 43.8297L3.96484 39.0625H4.05051C4.05051 38.1992 4.74122 37.5 5.59401 37.5C6.4468 37.5 7.13751 38.1992 7.13751 39.0625H7.16916L7.11899 39.2461C7.10047 39.4148 7.05725 39.5734 6.98857 39.7211L5.60327 44.7734C5.60327 44.7766 5.60867 44.7711 5.60867 44.775C5.54693 45.0023 5.68122 45.2375 5.9058 45.2977C5.97294 45.3164 6.04085 45.3164 6.10182 45.3039C6.10568 45.3039 6.10028 45.3117 6.10182 45.3117L10.6953 44.0195C10.7045 44.018 10.7107 44.018 10.72 44.0164C12.5274 43.5141 14.3627 43.7414 15.9193 44.525C15.9347 44.5328 15.9525 44.5352 15.9694 44.5406C18.8851 46.0266 22.172 46.875 25.6595 46.875C37.5947 46.875 47.2686 37.0813 47.2686 25C47.2686 12.9187 37.5947 3.125 25.6595 3.125C13.7252 3.125 4.05051 12.9187 4.05051 25C4.05051 25.4586 4.07289 25.9133 4.10067 26.3633L4.03121 26.3695C4.03893 26.432 4.05051 26.4961 4.05051 26.5625C4.05051 27.4258 3.35979 28.125 2.507 28.125C1.65422 28.125 0.963501 27.4258 0.963501 26.5625C0.963501 26.4438 0.978936 26.3273 1.0044 26.218C0.983567 25.8125 0.963501 25.4086 0.963501 25C0.963501 11.193 12.0204 0 25.6595 0C39.2987 0 50.3556 11.193 50.3556 25C50.3556 38.807 39.2987 50 25.6595 50Z" fill="#3BDBAB"/>
</svg>
