<svg width="270" height="54" viewBox="0 0 270 54" fill="none" xmlns="http://www.w3.org/2000/svg">
<g filter="url(#filter0_d_124_382)">
<path d="M93.5787 26.3241V44H89.273V33.3995L85.3199 44H81.8451L77.8668 33.3743V44H73.5611V26.3241H78.6473L83.6077 38.5613L88.5177 26.3241H93.5787ZM116.693 26.3241V44H112.387V33.3995L108.434 44H104.959L100.981 33.3743V44H96.675V26.3241H101.761L106.722 38.5613L111.632 26.3241H116.693ZM137.84 26.3241V29.7737H133.157V44H128.851V29.7737H124.168V26.3241H137.84ZM148.361 44.1763C146.699 44.1763 145.171 43.7902 143.778 43.018C142.402 42.2458 141.302 41.1715 140.48 39.795C139.674 38.4018 139.271 36.8407 139.271 35.1117C139.271 33.3827 139.674 31.83 140.48 30.4535C141.302 29.077 142.402 28.0027 143.778 27.2306C145.171 26.4584 146.699 26.0723 148.361 26.0723C150.023 26.0723 151.542 26.4584 152.918 27.2306C154.311 28.0027 155.403 29.077 156.191 30.4535C156.997 31.83 157.4 33.3827 157.4 35.1117C157.4 36.8407 156.997 38.4018 156.191 39.795C155.386 41.1715 154.295 42.2458 152.918 43.018C151.542 43.7902 150.023 44.1763 148.361 44.1763ZM148.361 40.2483C149.771 40.2483 150.895 39.7783 151.735 38.8382C152.591 37.8982 153.019 36.656 153.019 35.1117C153.019 33.5506 152.591 32.3084 151.735 31.3851C150.895 30.4451 149.771 29.9751 148.361 29.9751C146.934 29.9751 145.792 30.4367 144.936 31.36C144.097 32.2832 143.677 33.5338 143.677 35.1117C143.677 36.6728 144.097 37.9234 144.936 38.8634C145.792 39.7867 146.934 40.2483 148.361 40.2483ZM170.043 44L164.101 36.1944V44H159.795V26.3241H164.101V34.0793L169.993 26.3241H175.054L168.205 34.9858L175.306 44H170.043ZM181.582 26.3241V36.8994C181.582 37.957 181.842 38.7711 182.363 39.3418C182.883 39.9126 183.647 40.1979 184.654 40.1979C185.661 40.1979 186.434 39.9126 186.971 39.3418C187.508 38.7711 187.776 37.957 187.776 36.8994V26.3241H192.082V36.8742C192.082 38.4521 191.746 39.7867 191.075 40.8778C190.403 41.9689 189.497 42.7914 188.356 43.3453C187.231 43.8993 185.972 44.1763 184.579 44.1763C183.185 44.1763 181.935 43.9077 180.827 43.3705C179.736 42.8166 178.871 41.994 178.233 40.9029C177.596 39.795 177.277 38.4521 177.277 36.8742V26.3241H181.582ZM201.728 26.3241C203.591 26.3241 205.219 26.6934 206.613 27.432C208.006 28.1706 209.08 29.2113 209.836 30.5542C210.608 31.8803 210.994 33.4163 210.994 35.162C210.994 36.891 210.608 38.427 209.836 39.7699C209.08 41.1128 207.997 42.1535 206.587 42.8921C205.194 43.6307 203.574 44 201.728 44H195.106V26.3241H201.728ZM201.451 40.2735C203.079 40.2735 204.346 39.8286 205.253 38.9389C206.159 38.0493 206.613 36.7903 206.613 35.162C206.613 33.5338 206.159 32.2664 205.253 31.36C204.346 30.4535 203.079 30.0003 201.451 30.0003H199.411V40.2735H201.451ZM224.403 40.8778H217.806L216.749 44H212.242L218.637 26.3241H223.623L230.018 44H225.461L224.403 40.8778ZM223.295 37.5541L221.105 31.083L218.939 37.5541H223.295Z" fill="white"/>
</g>
<path d="M11.4908 41.8832C11.3043 41.7824 11.1483 41.6332 11.0393 41.4513C10.9303 41.2695 10.8722 41.0616 10.8712 40.8496C10.8726 37.1954 10.8702 29.6277 10.8712 26.0194C10.8722 25.8074 10.9303 25.5995 11.0393 25.4176C11.1483 25.2358 11.3043 25.0866 11.4908 24.9858C12.3687 24.5167 13.0318 23.727 13.3418 22.7812C13.9362 20.8562 12.9261 18.3093 10.6102 17.6888V20.758C10.6102 21.1299 10.464 21.487 10.2031 21.7522C9.94229 22.0173 9.58766 22.1693 9.21575 22.1754L8.65592 22.192L8.0962 22.1754C7.72428 22.1693 7.36964 22.0174 7.10878 21.7522C6.84792 21.487 6.70175 21.13 6.7018 20.758V17.6888C4.38992 18.3012 3.3731 20.8646 3.97016 22.7811C4.28012 23.7273 4.94334 24.5174 5.82156 24.9866C6.0081 25.0875 6.16407 25.2366 6.27309 25.4185C6.38212 25.6003 6.44018 25.8082 6.44119 26.0202V40.8499C6.44018 41.0619 6.38212 41.2698 6.27309 41.4516C6.16407 41.6335 6.0081 41.7827 5.82156 41.8835C4.94327 42.3526 4.27994 43.1425 3.96984 44.0887C3.37215 46.0073 4.39256 48.5688 6.70148 49.181V46.1118C6.70146 45.7399 6.84764 45.3828 7.1085 45.1176C7.36935 44.8525 7.72398 44.7005 8.09589 44.6944L8.65561 44.6778L9.21544 44.6944C9.58745 44.7004 9.94218 44.8525 10.2031 45.1177C10.464 45.3829 10.6102 45.7401 10.6102 46.1121V49.1813C12.9248 48.5649 13.9375 46.009 13.3418 44.089C13.032 43.1428 12.3689 42.3526 11.4908 41.8832Z" fill="#A3BED8"/>
<path d="M31.3147 22.9629L20.0549 34.132V47.9242C20.055 48.8264 20.4134 49.6916 21.0513 50.3296C21.6893 50.9675 22.5545 51.3259 23.4567 51.326H27.7569V43.0982C27.7569 41.169 29.257 39.526 31.1846 39.4575C31.6624 39.44 32.1389 39.5191 32.5854 39.6899C33.032 39.8608 33.4396 40.1199 33.7838 40.4517C34.128 40.7836 34.4017 41.1815 34.5887 41.6215C34.7757 42.0616 34.8721 42.5348 34.8721 43.0129V51.326H39.1723C40.0745 51.3259 40.9397 50.9675 41.5777 50.3296C42.2157 49.6916 42.5741 48.8264 42.5741 47.9242V34.1323L31.3147 22.9629Z" fill="#3BDBAB"/>
<path d="M31.3148 19.7904L14.0704 37.0349L16.488 39.4523L31.3148 24.6256L46.1416 39.4523L48.5591 37.0349L31.3148 19.7904Z" fill="#C3DB3D"/>
<path d="M49.6709 26.8461L49.0606 27.4564C48.7182 27.7988 48.2538 27.9911 47.7695 27.9911C47.2853 27.9911 46.8209 27.7988 46.4784 27.4564L31.3331 12.3111L34.5256 9.11865L49.6709 24.264C49.8404 24.4335 49.9749 24.6348 50.0667 24.8563C50.1584 25.0778 50.2057 25.3152 50.2057 25.555C50.2057 25.7948 50.1584 26.0322 50.0667 26.2537C49.9749 26.4752 49.8404 26.6765 49.6709 26.8461Z" fill="#C3DB3D"/>
<path d="M32.7403 2.67407L24.8068 10.6075C24.6568 10.7576 24.5377 10.9357 24.4565 11.1318C24.3753 11.3279 24.3335 11.538 24.3335 11.7502C24.3335 11.9625 24.3753 12.1726 24.4565 12.3687C24.5377 12.5647 24.6568 12.7429 24.8068 12.8929L26.8382 14.9243C26.9882 15.0743 27.1664 15.1934 27.3624 15.2746C27.5585 15.3558 27.7686 15.3976 27.9809 15.3976C28.1931 15.3976 28.4032 15.3558 28.5993 15.2746C28.7954 15.1934 28.9735 15.0743 29.1236 14.9243L38.8281 5.21977L32.7403 2.67407Z" fill="#A3BED8"/>
<path d="M10.7591 49.7766C12.5156 49.3374 13.3771 48.0073 13.7903 46.9688C14.737 44.7048 13.613 42.2702 11.7864 41.3452C11.6964 41.2972 11.6209 41.2258 11.5679 41.1386C11.5149 41.0514 11.4864 40.9516 11.4852 40.8495V26.0197C11.4864 25.9176 11.515 25.8178 11.568 25.7306C11.621 25.6434 11.6965 25.572 11.7865 25.524C12.804 24.9815 13.5712 24.0654 13.9267 22.9685C14.6131 20.7557 13.4769 17.8182 10.7591 17.0927C10.6687 17.071 10.5745 17.0699 10.4836 17.0896C10.3927 17.1093 10.3074 17.1493 10.2341 17.2066C10.1607 17.2638 10.1013 17.3369 10.0601 17.4203C10.019 17.5037 9.99718 17.5954 9.99636 17.6884V20.7575C9.99492 20.9694 9.91045 21.1723 9.7611 21.3226C9.61174 21.4729 9.40941 21.5586 9.19754 21.5614C8.92533 21.5768 8.37868 21.5764 8.10636 21.5614C7.89574 21.5571 7.69514 21.4706 7.54736 21.3205C7.39958 21.1704 7.31632 20.9684 7.31535 20.7577V17.6886C7.31534 17.5953 7.29408 17.5033 7.25317 17.4194C7.21226 17.3356 7.15278 17.2622 7.07925 17.2047C7.00573 17.1473 6.92008 17.1074 6.82883 17.0881C6.73757 17.0687 6.6431 17.0704 6.5526 17.093C3.82855 17.8222 2.70193 20.7547 3.38558 22.9689C3.74104 24.0658 4.50818 24.982 5.52554 25.5246C5.61552 25.5726 5.69096 25.6438 5.74397 25.7309C5.79698 25.818 5.82561 25.9177 5.82687 26.0197V40.85C5.82567 40.952 5.79708 41.0518 5.74409 41.139C5.6911 41.2262 5.61566 41.2976 5.52565 41.3457C4.5082 41.8879 3.74096 42.8039 3.38558 43.9007C2.69887 46.1133 3.8353 49.0514 6.55302 49.7766C6.64346 49.7984 6.73763 49.7994 6.82854 49.7797C6.91944 49.76 7.00472 49.72 7.07804 49.6628C7.15135 49.6055 7.2108 49.5325 7.25196 49.4491C7.29312 49.3657 7.31493 49.274 7.31577 49.181V46.1119C7.31716 45.9 7.40161 45.6971 7.55097 45.5468C7.70034 45.3965 7.9027 45.3107 8.11459 45.308C8.38691 45.2926 8.93355 45.2929 9.20587 45.308C9.41652 45.3123 9.61715 45.3987 9.76494 45.5489C9.91273 45.699 9.99597 45.901 9.99689 46.1117V49.1808C9.99775 49.2738 10.0196 49.3654 10.0607 49.4487C10.1018 49.5321 10.1612 49.6051 10.2345 49.6624C10.3077 49.7196 10.3929 49.7596 10.4837 49.7794C10.5746 49.7992 10.6687 49.7982 10.7591 49.7766ZM9.23393 44.0813C8.93777 44.0652 8.38216 44.0648 8.08632 44.0813C7.5541 44.0923 7.04725 44.3108 6.67391 44.6903C6.30057 45.0698 6.09031 45.5801 6.08801 46.1124V48.2773C4.7089 47.4151 4.11901 45.6864 4.55417 44.2768C4.8154 43.4794 5.37569 42.8142 6.11722 42.4213C6.39992 42.2674 6.63608 42.0403 6.80104 41.7639C6.96599 41.4874 7.05368 41.1718 7.05494 40.8498V26.0197C7.05367 25.6978 6.96597 25.3822 6.80102 25.1059C6.63606 24.8295 6.3999 24.6025 6.11722 24.4486C5.37581 24.0555 4.81558 23.3904 4.55417 22.593C4.12038 21.1769 4.70594 19.4616 6.08801 18.5926V20.7576C6.08994 21.2887 6.29896 21.798 6.67061 22.1773C7.04226 22.5566 7.54722 22.7759 8.0781 22.7886L8.63782 22.8052C8.64991 22.8052 8.66204 22.8052 8.67421 22.8052L9.22591 22.7888C9.75807 22.7776 10.2648 22.5591 10.6381 22.1796C11.0114 21.8002 11.2216 21.2899 11.224 20.7576V18.5893C12.4523 19.2584 13.248 21.2166 12.7578 22.593C12.4966 23.3904 11.9364 24.0554 11.1951 24.4485C10.9124 24.6025 10.6762 24.8295 10.5113 25.106C10.3463 25.3824 10.2586 25.6981 10.2574 26.02V40.85C10.2587 41.1719 10.3464 41.4875 10.5113 41.764C10.6763 42.0404 10.9124 42.2675 11.1951 42.4214C11.9055 42.7983 12.449 43.4276 12.7182 44.1854C12.9874 44.9432 12.9629 45.7743 12.6495 46.5149C12.4124 47.1109 11.9834 47.8343 11.2239 48.2772V46.1122C11.2221 45.5812 11.0131 45.0718 10.6414 44.6925C10.2698 44.3132 9.76481 44.0939 9.23393 44.0812V44.0813Z" fill="#333333"/>
<path d="M20.0549 38.8898C19.8921 38.8898 19.7359 38.9544 19.6208 39.0695C19.5057 39.1847 19.441 39.3408 19.441 39.5036V47.9241C19.4422 48.9888 19.8657 50.0095 20.6185 50.7623C21.3714 51.5152 22.3921 51.9386 23.4568 51.9398H27.7568C27.9196 51.9398 28.0758 51.8752 28.1909 51.76C28.306 51.6449 28.3707 51.4888 28.3708 51.326V43.0983C28.3708 41.4846 29.6429 40.1266 31.2068 40.0713C32.8291 39.9797 34.2938 41.389 34.2587 43.0134V51.3263C34.2587 51.4891 34.3234 51.6453 34.4385 51.7604C34.5536 51.8755 34.7098 51.9401 34.8726 51.9401H39.1727C40.2373 51.9389 41.258 51.5155 42.0109 50.7626C42.7637 50.0098 43.1872 48.9891 43.1884 47.9244V39.5036C43.1863 39.3422 43.1207 39.1881 43.0058 39.0747C42.8909 38.9613 42.7359 38.8977 42.5745 38.8977C42.4131 38.8977 42.2581 38.9613 42.1432 39.0747C42.0283 39.1881 41.9627 39.3422 41.9606 39.5036V47.9241C41.9598 48.6633 41.6658 49.3719 41.1432 49.8946C40.6205 50.4173 39.9118 50.7113 39.1727 50.7122H35.4864V43.013C35.4864 42.4524 35.3734 41.8975 35.1542 41.3816C34.935 40.8656 34.614 40.3992 34.2105 40.0101C33.8069 39.6209 33.3291 39.3172 32.8055 39.1168C32.2819 38.9165 31.7234 38.8238 31.1632 38.8442C28.9464 38.9229 27.143 40.8312 27.143 43.0983V50.7122H23.4568C22.7176 50.7113 22.0089 50.4173 21.4863 49.8946C20.9636 49.3719 20.6696 48.6633 20.6688 47.9241V39.5036C20.6688 39.3408 20.6041 39.1846 20.4889 39.0695C20.3738 38.9544 20.2177 38.8898 20.0549 38.8898Z" fill="#333333"/>
<path d="M31.7487 19.3564C31.6332 19.2422 31.4772 19.1781 31.3147 19.1781C31.1522 19.1781 30.9963 19.2422 30.8807 19.3564L13.6366 36.6006C13.5224 36.7162 13.4584 36.8721 13.4584 37.0346C13.4584 37.1971 13.5224 37.3531 13.6366 37.4687L16.0541 39.8861C16.1111 39.9432 16.1788 39.9884 16.2533 40.0193C16.3278 40.0502 16.4076 40.0661 16.4882 40.0661C16.5689 40.0661 16.6487 40.0502 16.7232 40.0193C16.7977 39.9884 16.8654 39.9432 16.9223 39.8861L31.3147 25.4938L45.7075 39.8863C45.7645 39.9434 45.8321 39.9886 45.9066 40.0195C45.9811 40.0503 46.0609 40.0662 46.1415 40.0662C46.2221 40.0662 46.302 40.0503 46.3764 40.0195C46.4509 39.9886 46.5185 39.9434 46.5755 39.8863L48.993 37.4689C49.05 37.4119 49.0952 37.3442 49.1261 37.2698C49.157 37.1953 49.1729 37.1154 49.1729 37.0348C49.1729 36.9542 49.157 36.8744 49.1261 36.7999C49.0952 36.7254 49.05 36.6578 48.993 36.6008L31.7487 19.3564ZM46.1415 38.5841L31.7487 24.1915C31.6917 24.1345 31.6241 24.0893 31.5496 24.0585C31.4751 24.0276 31.3953 24.0117 31.3147 24.0117C31.2341 24.0117 31.1543 24.0276 31.0798 24.0585C31.0054 24.0893 30.9377 24.1345 30.8807 24.1915L16.4879 38.5841L14.9385 37.0349L31.3147 20.6585L47.6909 37.0349L46.1415 38.5841Z" fill="#333333"/>
<path d="M35.5957 9.32034L39.2622 5.65383C39.3324 5.5821 39.3842 5.49435 39.4129 5.39815C39.4416 5.30195 39.4465 5.20019 39.4271 5.10169C39.4076 5.00319 39.3645 4.91089 39.3014 4.8328C39.2383 4.7547 39.1572 4.69314 39.0649 4.65346L32.977 2.10765C32.8646 2.06071 32.7409 2.04822 32.6214 2.07179C32.502 2.09536 32.3923 2.15392 32.3062 2.24001L24.3726 10.1735C24.1656 10.3805 24.0013 10.6264 23.8892 10.8969C23.7772 11.1674 23.7195 11.4574 23.7195 11.7502C23.7195 12.0431 23.7772 12.333 23.8892 12.6036C24.0013 12.8741 24.1656 13.1199 24.3726 13.327L26.4039 15.3584C27.2342 16.2233 28.7275 16.2233 29.5575 15.3584L34.7273 10.1882L49.2368 24.6979C49.4639 24.9253 49.5914 25.2336 49.5914 25.5549C49.5914 25.8763 49.4639 26.1846 49.2368 26.412L48.6265 27.0223C48.399 27.2492 48.0908 27.3765 47.7694 27.3765C47.4481 27.3765 47.1399 27.2492 46.9123 27.0223L33.9057 14.0156C33.8489 13.9579 33.7812 13.912 33.7065 13.8806C33.6319 13.8492 33.5517 13.8329 33.4708 13.8326C33.3898 13.8323 33.3095 13.8481 33.2346 13.8789C33.1598 13.9098 33.0917 13.9552 33.0345 14.0124C32.9772 14.0697 32.9318 14.1378 32.901 14.2126C32.8701 14.2875 32.8544 14.3678 32.8547 14.4488C32.855 14.5297 32.8713 14.6099 32.9027 14.6845C32.9342 14.7592 32.98 14.8269 33.0377 14.8837L46.0443 27.8903C46.5022 28.3472 47.1226 28.6038 47.7694 28.6038C48.4163 28.6038 49.0367 28.3472 49.4945 27.8903L50.1048 27.2801C50.5617 26.8222 50.8184 26.2018 50.8184 25.5549C50.8184 24.9081 50.5617 24.2876 50.1048 23.8298L35.5957 9.32034ZM28.6895 14.4903C28.5009 14.6771 28.2462 14.7818 27.9808 14.7818C27.7154 14.7818 27.4607 14.6771 27.2722 14.4903L25.2408 12.4589C25.054 12.2703 24.9492 12.0157 24.9492 11.7502C24.9492 11.4848 25.054 11.2301 25.2408 11.0416L32.8832 3.39933L37.7472 5.43287L28.6895 14.4903Z" fill="#333333"/>
<defs>
<filter id="filter0_d_124_382" x="70.3718" y="26.0723" width="162.836" height="24.4828" filterUnits="userSpaceOnUse" color-interpolation-filters="sRGB">
<feFlood flood-opacity="0" result="BackgroundImageFix"/>
<feColorMatrix in="SourceAlpha" type="matrix" values="0 0 0 0 0 0 0 0 0 0 0 0 0 0 0 0 0 0 127 0" result="hardAlpha"/>
<feOffset dy="3.18939"/>
<feGaussianBlur stdDeviation="1.59469"/>
<feComposite in2="hardAlpha" operator="out"/>
<feColorMatrix type="matrix" values="0 0 0 0 0.117647 0 0 0 0 0.117647 0 0 0 0 0.117647 0 0 0 1 0"/>
<feBlend mode="normal" in2="BackgroundImageFix" result="effect1_dropShadow_124_382"/>
<feBlend mode="normal" in="SourceGraphic" in2="effect1_dropShadow_124_382" result="shape"/>
</filter>
</defs>
</svg>
