<svg width="34" height="27" viewBox="0 0 34 27" fill="none" xmlns="http://www.w3.org/2000/svg">
<path d="M33.3064 4.14226L29.7894 0.684339C29.3499 0.246065 28.755 0 28.1349 0C27.5147 0 26.9198 0.246065 26.4804 0.684339L12.8956 14.0875L12.8795 14.0713L7.51009 8.8947C7.06955 8.45804 6.47431 8.21384 5.85451 8.21549C5.23471 8.21714 4.64078 8.46451 4.20256 8.90351L0.685478 12.426C0.246538 12.8663 0 13.4631 0 14.0853C0 14.7074 0.246538 15.3042 0.685478 15.7445L11.181 26.312C11.3988 26.5301 11.6573 26.7031 11.9418 26.8212C12.2263 26.9392 12.5312 27 12.8392 27C13.1472 27 13.4521 26.9392 13.7366 26.8212C14.0211 26.7031 14.2796 26.5301 14.4974 26.312L33.3138 7.46956C33.532 7.2509 33.7049 6.99124 33.8226 6.70549C33.9404 6.41974 34.0007 6.11352 34 5.80438C33.9993 5.49525 33.9377 5.1893 33.8187 4.90407C33.6997 4.61884 33.5256 4.35995 33.3064 4.14226ZM12.8399 24.655L2.34437 14.0875L5.86146 10.565L5.87758 10.5811L11.247 15.7577C11.6861 16.1933 12.2791 16.4377 12.8971 16.4377C13.5151 16.4377 14.1081 16.1933 14.5472 15.7577L28.1451 2.34578L31.6534 5.80958L12.8399 24.655Z" fill="#3BDBAB"/>
</svg>
